<svg version="1.1" xmlns="http://www.w3.org/2000/svg" viewBox="0 0 652.366123432543 220.42833044216678" width="652.366123432543" height="220.42833044216678">
  <!-- svg-source:excalidraw -->
  
  <defs>
    <style>
      @font-face {
        font-family: "Virgil";
        src: url("https://excalidraw.com/Virgil.woff2");
      }
      @font-face {
        font-family: "Cascadia";
        src: url("https://excalidraw.com/Cascadia.woff2");
      }
    </style>
  </defs>
  <rect x="0" y="0" width="652.366123432543" height="220.42833044216678" fill="#ffffff"></rect><g stroke-linecap="round" transform="translate(10 55.55589571552434) rotate(0 70.54945714734589 68.3476315352761)"><path d="M66.94 -0.41 C76.3 -1.84, 88.09 1.57, 97.62 5.57 C107.14 9.57, 117.2 16.13, 124.07 23.59 C130.94 31.06, 136.17 40.96, 138.83 50.36 C141.48 59.77, 142 70.47, 139.98 80.02 C137.96 89.57, 132.82 99.65, 126.72 107.67 C120.63 115.7, 112.19 123.5, 103.39 128.16 C94.59 132.83, 83.99 135.03, 73.91 135.67 C63.83 136.32, 52.31 135.72, 42.88 132.04 C33.45 128.36, 23.89 121.19, 17.32 113.61 C10.75 106.03, 6.23 96.04, 3.45 86.56 C0.67 77.07, -0.92 66.46, 0.65 56.69 C2.21 46.93, 6.71 36.12, 12.84 27.97 C18.96 19.82, 27.47 12.55, 37.42 7.79 C47.36 3.04, 65.84 0.4, 72.5 -0.54 C79.17 -1.48, 77.61 0.96, 77.4 2.17 M92.42 3.05 C101.87 4.94, 110.95 10.86, 118.24 17.6 C125.53 24.34, 132.42 34.26, 136.14 43.49 C139.86 52.71, 141.39 63.27, 140.54 72.95 C139.69 82.63, 136.06 93.16, 131.03 101.56 C125.99 109.95, 118.79 117.53, 110.34 123.33 C101.9 129.13, 90.25 134.48, 80.34 136.36 C70.43 138.24, 60.44 137.53, 50.91 134.6 C41.38 131.67, 30.98 125.67, 23.16 118.79 C15.34 111.91, 7.63 102.44, 3.98 93.33 C0.33 84.21, 0.42 73.9, 1.26 64.09 C2.09 54.28, 4.13 43.21, 8.98 34.45 C13.83 25.68, 21.7 16.92, 30.36 11.5 C39.03 6.08, 50.72 3.25, 60.98 1.92 C71.24 0.58, 87.08 3.34, 91.93 3.5 C96.77 3.67, 90.42 1.89, 90.07 2.89" stroke="#000000" stroke-width="1" fill="none"></path></g><g stroke-linecap="round" transform="translate(41.08754265754396 83.76364847218514) rotate(0 9.093687875472483 7.349996010999831)"><path d="M11.65 0.56 C13.42 0.98, 17.01 1.69, 18.15 3.01 C19.3 4.32, 19.17 6.68, 18.51 8.46 C17.85 10.23, 15.92 12.59, 14.17 13.65 C12.43 14.7, 10.03 14.98, 8.04 14.79 C6.04 14.6, 3.5 13.46, 2.19 12.5 C0.88 11.54, 0.17 10.47, 0.19 9.03 C0.2 7.59, 1.25 5.42, 2.28 3.86 C3.32 2.31, 4.41 0.03, 6.38 -0.32 C8.35 -0.66, 12.7 1.47, 14.12 1.8 C15.54 2.14, 15.05 1.73, 14.88 1.69 M8.02 1.51 C9.55 0.85, 11.89 -0.65, 13.7 -0.08 C15.51 0.48, 18.2 3.22, 18.86 4.89 C19.52 6.56, 18.59 8.41, 17.66 9.93 C16.73 11.44, 15.01 13.25, 13.27 13.97 C11.53 14.69, 9.2 14.51, 7.21 14.26 C5.23 14.01, 2.39 13.74, 1.38 12.46 C0.36 11.18, 1.01 8.39, 1.13 6.58 C1.26 4.78, 0.75 2.67, 2.13 1.65 C3.51 0.62, 8.45 0.59, 9.39 0.45 C10.32 0.3, 7.81 0.95, 7.75 0.8" stroke="none" stroke-width="0" fill="#228be6"></path><path d="M10.4 0.64 C12.43 1.01, 16.06 1.85, 17.31 3.11 C18.55 4.36, 18.23 6.62, 17.89 8.17 C17.56 9.73, 16.73 11.36, 15.29 12.43 C13.86 13.5, 11.12 14.26, 9.25 14.59 C7.39 14.92, 5.46 15.14, 4.09 14.41 C2.72 13.68, 1.47 11.85, 1.02 10.2 C0.57 8.55, 0.66 6.18, 1.38 4.52 C2.09 2.87, 3.55 1.03, 5.32 0.27 C7.09 -0.49, 10.56 -0.36, 12 -0.03 C13.43 0.3, 13.9 2.03, 13.93 2.25 M7.1 0.03 C8.81 -0.3, 11.93 -0.41, 13.75 0.29 C15.57 0.99, 17.2 2.88, 18.02 4.21 C18.84 5.54, 19.55 6.82, 18.65 8.27 C17.74 9.73, 14.27 11.73, 12.59 12.95 C10.91 14.16, 10.31 15.47, 8.56 15.57 C6.81 15.68, 3.58 14.76, 2.09 13.55 C0.61 12.34, -0.4 9.88, -0.34 8.3 C-0.28 6.72, 1.17 5.68, 2.45 4.09 C3.73 2.5, 6.56 -0.46, 7.34 -1.25 C8.11 -2.04, 7.06 -0.96, 7.11 -0.64" stroke="#1864ab" stroke-width="1" fill="none"></path></g><g stroke-linecap="round" transform="translate(30.75177969140975 113.02110529553124) rotate(0 6.427004678450999 6.488572213879479)"><path d="M3.69 1.16 C5.15 0.58, 8.19 -0.1, 9.65 0.13 C11.11 0.36, 11.89 1.35, 12.46 2.55 C13.02 3.74, 13.23 5.81, 13.04 7.31 C12.85 8.8, 12.35 10.49, 11.32 11.5 C10.29 12.5, 8.42 13.26, 6.85 13.32 C5.27 13.39, 2.85 12.87, 1.85 11.91 C0.86 10.95, 0.96 9.14, 0.89 7.57 C0.81 5.99, 0.65 3.83, 1.42 2.45 C2.2 1.08, 4.37 -0.45, 5.54 -0.69 C6.71 -0.93, 8.44 0.76, 8.45 1.01 M8.34 1.78 C9.37 1.93, 11.18 1.52, 12.06 2.8 C12.95 4.08, 14.18 7.87, 13.63 9.46 C13.09 11.05, 10.34 11.97, 8.79 12.36 C7.25 12.75, 5.65 12.13, 4.34 11.78 C3.04 11.43, 1.48 11.21, 0.98 10.27 C0.47 9.33, 1.22 7.38, 1.3 6.13 C1.38 4.87, 0.72 3.6, 1.45 2.75 C2.17 1.9, 4.22 1.12, 5.65 1.03 C7.07 0.94, 9.4 2.31, 10 2.22 C10.6 2.14, 9.62 0.6, 9.25 0.54" stroke="none" stroke-width="0" fill="#228be6"></path><path d="M8.2 0.79 C9.44 0.87, 9.91 1.17, 10.67 2.06 C11.43 2.95, 12.66 4.78, 12.77 6.13 C12.89 7.48, 12.23 9.01, 11.36 10.14 C10.49 11.27, 8.95 12.62, 7.55 12.9 C6.16 13.18, 4.16 12.58, 2.99 11.82 C1.81 11.06, 1.04 9.68, 0.51 8.36 C-0.02 7.04, -0.48 5.3, -0.19 3.91 C0.09 2.52, 0.74 0.72, 2.22 0.04 C3.69 -0.64, 7.45 -0.39, 8.66 -0.16 C9.86 0.07, 9.6 1.28, 9.46 1.43 M7.23 1.48 C8.86 1.48, 10.72 0.5, 11.62 1.14 C12.52 1.78, 12.68 3.96, 12.62 5.31 C12.56 6.65, 11.87 7.96, 11.26 9.21 C10.64 10.45, 10.35 12.07, 8.94 12.75 C7.53 13.43, 4.3 14, 2.78 13.3 C1.26 12.6, 0.37 9.71, -0.18 8.57 C-0.73 7.43, -0.85 7.44, -0.52 6.47 C-0.19 5.49, 0.77 4, 1.82 2.73 C2.87 1.45, 5.17 -0.57, 5.78 -1.2 C6.39 -1.84, 5.3 -1.4, 5.5 -1.09" stroke="#1864ab" stroke-width="1" fill="none"></path></g><g stroke-linecap="round" transform="translate(241.9606223080059 57.30037827925241) rotate(0 69.14370219692364 67.29166984558105)"><path d="M97.14 5.71 C106.11 8.76, 114.9 16.81, 121.45 24.27 C127.99 31.74, 133.91 41.19, 136.41 50.5 C138.9 59.81, 138.35 70.62, 136.41 80.13 C134.47 89.65, 130.72 99.66, 124.76 107.59 C118.81 115.53, 109.69 123.27, 100.69 127.75 C91.69 132.23, 80.71 134.44, 70.77 134.48 C60.83 134.52, 50.21 131.97, 41.03 127.98 C31.84 123.99, 22.02 118.06, 15.68 110.55 C9.33 103.04, 5.22 92.5, 2.95 82.92 C0.69 73.33, 0.29 62.6, 2.09 53.05 C3.89 43.5, 7.78 33.4, 13.76 25.63 C19.75 17.86, 29.02 10.74, 38.01 6.41 C47.01 2.09, 57.47 -0.24, 67.74 -0.3 C78 -0.36, 94.08 4.54, 99.62 6.06 C105.16 7.58, 101.38 7.74, 100.97 8.81 M101.86 8.27 C110.45 11.96, 118.62 20.3, 124.49 28.33 C130.35 36.37, 135.26 46.86, 137.06 56.48 C138.85 66.09, 138.05 76.71, 135.26 86.02 C132.48 95.33, 126.75 105.34, 120.36 112.33 C113.96 119.32, 106.04 124.33, 96.87 127.97 C87.71 131.6, 75.31 134.4, 65.38 134.13 C55.45 133.86, 46.19 130.69, 37.29 126.36 C28.39 122.03, 18.12 116.11, 11.97 108.16 C5.82 100.22, 1.97 88.65, 0.39 78.69 C-1.2 68.72, -0.2 57.68, 2.47 48.38 C5.15 39.08, 10 29.89, 16.46 22.88 C22.92 15.87, 32.02 10.09, 41.22 6.3 C50.41 2.5, 61.51 0.01, 71.61 0.12 C81.7 0.23, 97.01 5.5, 101.78 6.97 C106.55 8.44, 101.02 7.72, 100.23 8.93" stroke="#000000" stroke-width="1" fill="none"></path></g><g stroke-linecap="round"><g transform="translate(273.77634213418025 210.42833044216678) rotate(0 68.04180559813608 -43.689561667180925)"><path d="M1.11 0.41 C8.6 -13.85, 23.14 -72.22, 45.76 -86.18 C68.38 -100.15, 121.83 -83.65, 136.84 -83.39" stroke="#000000" stroke-width="1.5" fill="none" stroke-dasharray="8 9"></path></g></g><g stroke-linecap="round"><g transform="translate(273.88335469666225 40.174925291647384) rotate(0 18.000987381479746 40.685286024536296)"><path d="M-0.51 0.37 C5.22 13.82, 29.15 67.76, 35.41 81.08" stroke="#000000" stroke-width="1.5" fill="none" stroke-dasharray="8 9"></path></g></g><g stroke-linecap="round"><g transform="translate(278.1252431523817 114.76912221527454) rotate(0 19.066206434300284 -11.945096038326227)"><path d="M-0.68 0.1 C2.96 -3.73, 14.93 -17.73, 21.5 -21.8 C28.08 -25.86, 35.9 -24, 38.75 -24.28 M1.16 -0.89 C5.22 -4.52, 17.62 -19.59, 23.81 -23.3 C30 -27.01, 35.77 -23.36, 38.3 -23.16" stroke="#000000" stroke-width="1" fill="none"></path></g></g><g stroke-linecap="round"><g transform="translate(286.1415277996226 124.03382092050532) rotate(0 18.606786741297242 -11.60053784072565)"><path d="M-0.61 -0.49 C5.74 -4.34, 30.92 -19.01, 37.11 -22.97 M1.27 -1.79 C7.55 -6.04, 30.41 -21.36, 36.11 -24.97" stroke="#000000" stroke-width="1" fill="none"></path></g></g><g stroke-linecap="round"><g transform="translate(272.99568282156855 111.62083597690116) rotate(0 21.248528841885076 -16.424503766622678)"><path d="M1.15 -0.71 C5.02 -6.21, 15.8 -28.65, 22.62 -33.7 C29.43 -38.75, 38.94 -31.3, 42.06 -31.01 M0.3 1.53 C4.08 -3.78, 15.05 -27.38, 21.84 -32.6 C28.64 -37.83, 37.87 -30, 41.06 -29.81" stroke="#000000" stroke-width="1" fill="none"></path></g></g><g stroke-linecap="round"><g transform="translate(335.19916974654745 142.54703449448152) rotate(0 -1.1485229439007298 -20.099920460012186)"><path d="M-1.07 0.11 C-1.47 -6.47, -1.63 -33.46, -1.91 -40.07 M0.57 -0.88 C0 -7.19, -1.93 -31.68, -2.65 -38.46" stroke="#000000" stroke-width="1" fill="none"></path></g></g><g stroke-linecap="round"><g transform="translate(323.86164201351676 140.99497238429814) rotate(0 1.378285367615888 -21.248495981126553)"><path d="M0.94 0.81 C1.32 -6.34, 1.96 -35.49, 2.39 -42.67 M-0.02 0.19 C0.15 -6.8, 0.71 -34.39, 1.24 -41.22" stroke="#000000" stroke-width="1" fill="none"></path></g></g><g transform="translate(307.3999716440836 144.3333339691162) rotate(0 9.833343505859375 22.34850796786222)"><text x="0" y="30.69701593572443" font-family="Virgil, Segoe UI Emoji" font-size="35.75761274857957px" fill="#2b8a3e" text-anchor="start" style="white-space: pre;" direction="ltr">V</text></g><g transform="translate(249.6916433970133 110.90151492032135) rotate(0 9.833343505859375 22.34850796786222)"><text x="0" y="30.69701593572443" font-family="Virgil, Segoe UI Emoji" font-size="35.75761274857957px" fill="#1864ab" text-anchor="start" style="white-space: pre;" direction="ltr">V</text></g><g transform="translate(328.89990297953284 64.48485079678619) rotate(0 9.833343505859375 22.34850796786222)"><text x="0" y="30.69701593572443" font-family="Virgil, Segoe UI Emoji" font-size="35.75761274857957px" fill="#e67700" text-anchor="start" style="white-space: pre;" direction="ltr">V</text></g><g transform="translate(325.0666357676188 162.29169845581055) rotate(0 7 12.5)"><text x="0" y="17" font-family="Virgil, Segoe UI Emoji" font-size="20px" fill="#2b8a3e" text-anchor="start" style="white-space: pre;" direction="ltr">3</text></g><g transform="translate(266.64995638529456 131.54166793823242) rotate(0 3 12.5)"><text x="0" y="17" font-family="Virgil, Segoe UI Emoji" font-size="20px" fill="#1864ab" text-anchor="start" style="white-space: pre;" direction="ltr">1</text></g><g transform="translate(343.81662813822425 85.08339500427246) rotate(0 7.5 12.5)"><text x="0" y="17" font-family="Virgil, Segoe UI Emoji" font-size="20px" fill="#e67700" text-anchor="start" style="white-space: pre;" direction="ltr">2</text></g><g stroke-linecap="round" transform="translate(55.76464634795684 116.89997347142207) rotate(0 9.093687875472483 7.349996010999831)"><path d="M12.71 -0.57 C14.3 -0.02, 15.25 2.57, 16.3 4.14 C17.36 5.7, 19.19 7.41, 19.05 8.83 C18.9 10.25, 17.18 11.84, 15.43 12.66 C13.68 13.48, 10.59 13.61, 8.54 13.75 C6.48 13.9, 4.54 14.42, 3.11 13.54 C1.68 12.66, 0.41 10.23, -0.05 8.45 C-0.51 6.67, -0.5 4.36, 0.34 2.88 C1.18 1.4, 2.71 -0.05, 4.99 -0.42 C7.26 -0.78, 12.16 0.08, 14 0.69 C15.84 1.3, 16.12 3.2, 16.01 3.25 M9.65 1.23 C11.41 1.23, 13.33 1.57, 14.71 2.38 C16.09 3.2, 17.47 4.88, 17.93 6.1 C18.39 7.33, 18.26 8.48, 17.47 9.72 C16.67 10.97, 15.18 12.59, 13.17 13.57 C11.17 14.56, 7.27 15.94, 5.41 15.65 C3.55 15.37, 2.76 13.2, 2.01 11.87 C1.26 10.54, 0.74 9.33, 0.89 7.67 C1.04 6.01, 1.81 3.13, 2.93 1.89 C4.06 0.65, 6.5 0.46, 7.64 0.23 C8.77 -0.01, 9.7 0.65, 9.75 0.5" stroke="none" stroke-width="0" fill="#228be6"></path><path d="M6.78 -0.46 C8.37 -1.06, 10.19 0.08, 11.78 0.74 C13.36 1.39, 15.15 2.1, 16.27 3.45 C17.39 4.79, 18.9 7.18, 18.5 8.82 C18.1 10.45, 15.49 12.26, 13.86 13.26 C12.24 14.27, 10.48 14.8, 8.77 14.84 C7.06 14.89, 5.22 14.53, 3.63 13.54 C2.04 12.54, -0.36 10.65, -0.77 8.88 C-1.17 7.1, -0.17 4.32, 1.2 2.89 C2.57 1.46, 6.55 0.59, 7.46 0.29 C8.37 -0.01, 6.64 1.1, 6.66 1.1 M9.49 0.6 C11.28 0.66, 13.07 1.43, 14.4 2.24 C15.73 3.06, 17.15 4.13, 17.48 5.47 C17.81 6.81, 17.24 8.7, 16.38 10.28 C15.53 11.86, 14.09 14.39, 12.35 14.95 C10.6 15.51, 7.84 14.2, 5.92 13.64 C4.01 13.08, 2.06 12.76, 0.86 11.6 C-0.35 10.45, -1.62 8.61, -1.3 6.71 C-0.98 4.82, 1.24 1.14, 2.77 0.24 C4.31 -0.66, 6.81 1.38, 7.9 1.32 C8.99 1.26, 9.28 -0.18, 9.3 -0.13" stroke="#1864ab" stroke-width="1" fill="none"></path></g><g stroke-linecap="round" transform="translate(95.09798985381622 75.98332079197868) rotate(0 9.093687875472483 7.349996010999817)"><path d="M9.48 0.79 C11.39 0.76, 14.08 0.6, 15.35 1.38 C16.62 2.16, 17.01 4, 17.12 5.48 C17.23 6.96, 16.75 8.91, 16.01 10.28 C15.26 11.64, 14.24 12.94, 12.66 13.67 C11.09 14.4, 8.57 15.05, 6.57 14.67 C4.57 14.29, 1.81 12.78, 0.65 11.41 C-0.51 10.03, -0.72 8.11, -0.39 6.4 C-0.07 4.68, 0.68 2.09, 2.6 1.14 C4.53 0.18, 9.23 0.55, 11.16 0.64 C13.09 0.73, 14.25 1.7, 14.18 1.65 M11.41 -0.16 C13.18 0.26, 16.32 2, 17.59 3.24 C18.87 4.47, 19.42 5.58, 19.07 7.24 C18.72 8.9, 17.25 11.85, 15.49 13.19 C13.73 14.54, 10.59 15.32, 8.51 15.33 C6.44 15.34, 4.64 14.34, 3.04 13.28 C1.45 12.21, -0.67 10.71, -1.06 8.94 C-1.45 7.17, -0.6 4.02, 0.72 2.65 C2.03 1.28, 4.96 0.85, 6.81 0.73 C8.67 0.61, 11.18 2.2, 11.84 1.95 C12.51 1.7, 10.89 -0.83, 10.81 -0.77" stroke="none" stroke-width="0" fill="#fa5252"></path><path d="M8.07 0.17 C9.98 -0.22, 11.49 -0.86, 13.17 0.04 C14.84 0.94, 17.27 3.85, 18.1 5.56 C18.94 7.26, 18.73 8.97, 18.16 10.25 C17.58 11.53, 16.22 12.67, 14.63 13.25 C13.04 13.82, 10.75 13.74, 8.61 13.69 C6.48 13.64, 3.1 13.87, 1.82 12.93 C0.55 11.99, 0.9 9.76, 0.96 8.05 C1.02 6.33, 1.13 4.15, 2.2 2.66 C3.27 1.17, 6.28 -0.56, 7.4 -0.91 C8.52 -1.26, 8.82 0.35, 8.93 0.57 M4.39 0.47 C6.2 0.12, 9.02 0.47, 11.29 0.93 C13.57 1.4, 17.11 2.04, 18.04 3.26 C18.98 4.49, 17.29 6.71, 16.91 8.29 C16.54 9.87, 16.87 11.49, 15.78 12.76 C14.7 14.03, 12.41 15.71, 10.38 15.92 C8.35 16.13, 5.3 15.13, 3.6 14.01 C1.89 12.9, 0.54 11.09, 0.16 9.24 C-0.21 7.38, 0.35 4.43, 1.36 2.89 C2.38 1.35, 5.7 0.14, 6.27 -0.02 C6.84 -0.19, 4.72 1.62, 4.78 1.9" stroke="#e67700" stroke-width="1" fill="none"></path></g><g stroke-linecap="round" transform="translate(112.30631810088653 99.23334749485957) rotate(0 9.093687875472483 7.349996010999831)"><path d="M10.46 0.3 C12.46 0.58, 15.91 2.57, 17.3 3.77 C18.69 4.98, 18.97 6, 18.83 7.55 C18.68 9.1, 18.04 11.96, 16.44 13.09 C14.85 14.22, 11.19 14.11, 9.25 14.32 C7.31 14.54, 6.14 15.14, 4.81 14.38 C3.47 13.62, 1.84 11.53, 1.23 9.74 C0.63 7.96, 0.66 5.12, 1.19 3.67 C1.71 2.22, 2.48 1.43, 4.38 1.03 C6.29 0.64, 11.05 1.19, 12.6 1.31 C14.14 1.42, 13.5 1.86, 13.64 1.72 M5.91 1.3 C7.84 0.53, 10.7 0.15, 12.4 0.58 C14.1 1.01, 15.13 2.46, 16.12 3.86 C17.11 5.26, 18.78 7.45, 18.36 9 C17.95 10.56, 14.96 12.02, 13.63 13.19 C12.3 14.36, 12.17 15.98, 10.39 16 C8.6 16.01, 4.72 14.53, 2.93 13.29 C1.13 12.06, 0.08 10.36, -0.39 8.59 C-0.86 6.81, -1 3.99, 0.11 2.63 C1.22 1.26, 5.17 0.81, 6.28 0.39 C7.4 -0.03, 6.7 0.12, 6.78 0.11" stroke="none" stroke-width="0" fill="#fa5252"></path><path d="M9.52 0.23 C11.39 -0.11, 12.91 -0.22, 14.19 0.56 C15.46 1.35, 16.85 3.13, 17.19 4.95 C17.53 6.77, 17.11 9.79, 16.22 11.46 C15.34 13.13, 13.46 14.56, 11.89 14.97 C10.32 15.37, 8.46 14.61, 6.81 13.9 C5.15 13.19, 2.99 12.09, 1.96 10.7 C0.92 9.3, 0.51 7.09, 0.6 5.52 C0.69 3.96, 0.83 2.16, 2.52 1.29 C4.21 0.43, 9.11 0.59, 10.75 0.34 C12.4 0.09, 12.58 -0.4, 12.4 -0.21 M10.23 0.72 C12.05 1.24, 14.59 2.54, 15.68 3.78 C16.76 5.02, 16.66 6.81, 16.73 8.13 C16.8 9.45, 17.04 10.65, 16.1 11.7 C15.16 12.76, 13.01 14.35, 11.11 14.48 C9.22 14.6, 6.43 13.34, 4.73 12.45 C3.02 11.57, 1.72 10.34, 0.87 9.17 C0.03 8, -1.04 6.88, -0.34 5.43 C0.35 3.98, 2.91 1.58, 5.03 0.46 C7.14 -0.66, 11.61 -1.14, 12.34 -1.28 C13.08 -1.42, 9.54 -0.92, 9.45 -0.37" stroke="#e67700" stroke-width="1" fill="none"></path></g><g stroke-linecap="round" transform="translate(75.97306233306426 154.5666948154162) rotate(0 9.093687875472483 7.349996010999831)"><path d="M7.05 -0.27 C8.86 -0.52, 12.79 1.11, 14.72 2.06 C16.65 3.01, 18.1 4.23, 18.63 5.45 C19.16 6.68, 18.92 7.98, 17.92 9.43 C16.92 10.87, 14.47 13.18, 12.63 14.14 C10.79 15.09, 8.76 15.52, 6.87 15.18 C4.98 14.83, 2.27 13.59, 1.29 12.08 C0.31 10.58, 0.93 7.91, 0.99 6.16 C1.06 4.41, 0 2.6, 1.7 1.57 C3.4 0.55, 9.25 0.12, 11.18 0 C13.12 -0.11, 13.46 0.84, 13.32 0.88 M8.28 0.2 C10.31 0.34, 15.03 2.17, 16.62 3.26 C18.22 4.36, 17.9 5.43, 17.83 6.78 C17.76 8.12, 17.4 10.25, 16.2 11.34 C15 12.44, 12.36 12.9, 10.63 13.36 C8.9 13.82, 7.3 14.6, 5.81 14.08 C4.32 13.56, 2.55 11.76, 1.69 10.24 C0.83 8.71, 0.43 6.16, 0.66 4.93 C0.89 3.71, 1.57 3.83, 3.05 2.9 C4.53 1.97, 8.44 -0.2, 9.53 -0.65 C10.63 -1.1, 9.78 0.08, 9.63 0.21" stroke="none" stroke-width="0" fill="#40c057"></path><path d="M4.75 1.45 C6.62 0.57, 10.01 -0.37, 12.09 -0.17 C14.16 0.04, 16.1 1.42, 17.19 2.67 C18.28 3.91, 19.03 5.73, 18.66 7.29 C18.28 8.84, 16.39 10.74, 14.95 12.02 C13.51 13.3, 11.84 14.86, 10.04 14.94 C8.23 15.03, 5.84 13.39, 4.1 12.54 C2.36 11.69, 0.07 11.29, -0.39 9.84 C-0.86 8.39, 0.38 5.47, 1.31 3.84 C2.25 2.21, 4.31 0.69, 5.2 0.08 C6.08 -0.53, 6.36 0.17, 6.63 0.19 M11.6 0.02 C13.47 0.12, 15.44 0.46, 16.6 1.63 C17.76 2.8, 18.86 5.15, 18.57 7.04 C18.29 8.94, 16.22 11.81, 14.9 13 C13.59 14.19, 12.21 14.32, 10.69 14.18 C9.16 14.04, 7.7 13.04, 5.77 12.17 C3.83 11.3, -0.27 10.05, -0.93 8.98 C-1.59 7.91, 0.62 7.1, 1.79 5.76 C2.96 4.41, 4.45 1.87, 6.1 0.91 C7.74 -0.06, 10.71 0.24, 11.68 -0.06 C12.65 -0.35, 12.05 -1.23, 11.92 -0.86" stroke="#2b8a3e" stroke-width="1" fill="none"></path></g><g stroke-linecap="round" transform="translate(108.68136387725372 143.06669863011348) rotate(0 9.093687875472483 7.349996010999831)"><path d="M9.46 0.24 C11.11 0.09, 13.69 1.09, 15.01 2.02 C16.33 2.96, 17.07 4.29, 17.37 5.85 C17.68 7.41, 17.72 10.01, 16.84 11.39 C15.97 12.76, 13.98 13.73, 12.13 14.09 C10.28 14.46, 7.67 13.99, 5.75 13.57 C3.82 13.15, 1.5 12.97, 0.58 11.57 C-0.34 10.17, -0.29 6.87, 0.24 5.19 C0.76 3.51, 2.19 2.4, 3.74 1.47 C5.29 0.54, 8.37 -0.04, 9.54 -0.37 C10.71 -0.7, 10.56 -0.56, 10.78 -0.5 M8.94 -0.8 C10.71 -1.32, 12.51 0.18, 14.04 0.97 C15.57 1.77, 17.32 2.22, 18.12 3.96 C18.92 5.69, 19.48 9.69, 18.84 11.39 C18.2 13.09, 16.11 13.48, 14.29 14.14 C12.47 14.8, 10.21 15.58, 7.92 15.34 C5.62 15.1, 1.86 14.06, 0.53 12.71 C-0.8 11.37, -0.6 9.02, -0.04 7.26 C0.51 5.51, 2.64 3.17, 3.85 2.2 C5.06 1.23, 6.55 1.62, 7.24 1.43 C7.93 1.25, 7.62 1.17, 8 1.11" stroke="none" stroke-width="0" fill="#40c057"></path><path d="M8.94 -0.36 C10.64 -0.31, 12.44 1.04, 13.98 2.01 C15.52 2.97, 17.48 4.15, 18.18 5.45 C18.87 6.74, 19.24 8.41, 18.15 9.79 C17.07 11.16, 13.51 12.81, 11.67 13.7 C9.83 14.59, 8.7 15.52, 7.13 15.13 C5.57 14.74, 3.39 12.81, 2.29 11.34 C1.19 9.86, 0.33 7.95, 0.55 6.26 C0.77 4.56, 1.99 2.06, 3.6 1.17 C5.21 0.28, 8.78 0.95, 10.23 0.93 C11.67 0.92, 12.36 0.97, 12.29 1.07 M13.19 1.77 C15.41 2.33, 17.27 3.11, 18.19 4.05 C19.11 4.99, 19.4 5.87, 18.71 7.41 C18.02 8.96, 15.69 11.93, 14.05 13.31 C12.4 14.68, 10.78 15.65, 8.85 15.67 C6.92 15.7, 3.68 14.81, 2.48 13.44 C1.28 12.07, 2.03 9.25, 1.64 7.43 C1.25 5.62, -0.78 3.73, 0.12 2.55 C1.01 1.37, 4.87 0.7, 7.01 0.37 C9.15 0.04, 12.08 0.67, 12.94 0.56 C13.79 0.44, 12.3 -0.47, 12.13 -0.33" stroke="#2b8a3e" stroke-width="1" fill="none"></path></g><g stroke-linecap="round"><g transform="translate(58.73332277933753 90.8750114440918) rotate(0 17.833337783813477 -3.166666030883789)"><path d="M1.05 -0.88 C6.9 -1.74, 29.42 -5.25, 35.36 -6.02 M0.13 1.27 C5.78 0.12, 28.2 -6.53, 34.25 -7.98" stroke="#000000" stroke-width="1" fill="none"></path></g></g><g stroke-linecap="round"><g transform="translate(45.73333040873206 117.54165267944336) rotate(0 27.83331871032715 -14.66665267944336)"><path d="M-0.48 1.16 C8.7 -3.7, 45.34 -25.36, 54.54 -30.26 M1.47 0.72 C11.05 -3.92, 47.39 -24.09, 56.66 -29.2" stroke="#000000" stroke-width="1" fill="none"></path></g></g><g stroke-linecap="round"><g transform="translate(73.73332277933753 121.5416488647461) rotate(0 19.666671752929688 -6.666650772094727)"><path d="M-0.49 0.1 C5.86 -1.88, 31.98 -10.55, 38.72 -12.74 M1.46 -0.9 C8.14 -3.15, 34.76 -12.77, 41.11 -14.55" stroke="#000000" stroke-width="1" fill="none"></path></g></g><g stroke-linecap="round"><g transform="translate(125.73333040873206 113.54165649414062) rotate(0 -1.3333320617675781 13.50001335144043)"><path d="M-0.31 0.65 C-0.51 5.4, -1.73 23.13, -2.21 27.48 M1.73 -0.05 C1.5 4.43, -1.92 20.94, -2.92 25.61" stroke="#000000" stroke-width="1" fill="none"></path></g></g><g stroke-linecap="round"><g transform="translate(85.39996401468909 154.54167938232422) rotate(0 16.66667938232422 -20.500011444091797)"><path d="M-0.84 0.98 C4.79 -6.06, 27.62 -34, 33.16 -41.09 M0.92 0.45 C6.43 -5.89, 26.48 -32.76, 32.11 -39.59" stroke="#000000" stroke-width="1" fill="none"></path></g></g><g stroke-linecap="round"><g transform="translate(126.39996782938636 96.87501525878906) rotate(0 -7.333316802978516 -4.833335876464844)"><path d="M0.53 0.14 C-1.58 -1.11, -11.19 -6.94, -13.77 -8.57 M-0.65 -0.84 C-2.74 -2.3, -11.71 -8.87, -14.25 -10.12" stroke="#000000" stroke-width="1" fill="none"></path></g></g><g stroke-linecap="round"><g transform="translate(35.39996401468909 114.2083511352539) rotate(0 4.833335876464844 -8.333349227905273)"><path d="M0.18 -0.94 C1.67 -3.79, 7.13 -13.52, 8.71 -16.07 M-1.18 1.19 C0.7 -1.5, 9.25 -14.62, 10.92 -17.88" stroke="#000000" stroke-width="1" fill="none"></path></g></g><g transform="translate(58.4000517527262 10) rotate(0 26.5 12.5)"><text x="0" y="17" font-family="Virgil, Segoe UI Emoji" font-size="20px" fill="#000000" text-anchor="start" style="white-space: pre;" direction="ltr">graph</text></g><g transform="translate(301.06665865580237 11.00001335144043) rotate(0 17 12.5)"><text x="0" y="17" font-family="Virgil, Segoe UI Emoji" font-size="20px" fill="#000000" text-anchor="start" style="white-space: pre;" direction="ltr">cut</text></g><g transform="translate(534.3999792734782 12.33332633972168) rotate(0 41 12.5)"><text x="0" y="17" font-family="Virgil, Segoe UI Emoji" font-size="20px" fill="#000000" text-anchor="start" style="white-space: pre;" direction="ltr">qoutient</text></g><g stroke-linecap="round" transform="translate(509.0670324961344 101.95846176147461) rotate(0 17.333221435546875 17.812528610229492)"><path d="M13.91 1.09 C17.03 -0.04, 20.72 -0.25, 24.02 1.26 C27.32 2.76, 31.97 6.58, 33.7 10.11 C35.44 13.65, 35.58 18.66, 34.41 22.47 C33.24 26.28, 29.8 30.64, 26.67 32.96 C23.55 35.28, 19.27 36.95, 15.65 36.38 C12.03 35.8, 7.66 32.32, 4.94 29.53 C2.23 26.74, -0.47 23.42, -0.63 19.64 C-0.79 15.86, 1.34 9.96, 3.97 6.85 C6.61 3.75, 12.82 2.14, 15.17 1.01 C17.53 -0.12, 17.97 0.09, 18.09 0.09 M22.34 2.24 C25.64 2.99, 29.63 5.02, 31.52 8.07 C33.41 11.13, 33.99 16.77, 33.67 20.58 C33.35 24.39, 32.38 28.21, 29.6 30.94 C26.81 33.66, 20.81 36.71, 16.97 36.92 C13.14 37.13, 9.17 34.79, 6.59 32.2 C4.02 29.6, 2.09 25.22, 1.51 21.33 C0.92 17.44, 1.31 12.08, 3.09 8.86 C4.87 5.65, 8.86 3.33, 12.18 2.05 C15.51 0.76, 21.52 1.25, 23.05 1.16 C24.58 1.07, 21.67 1.44, 21.37 1.49" stroke="none" stroke-width="0" fill="#228be6"></path><path d="M14.38 -0.08 C17.67 -1.01, 21.93 1.13, 25 2.9 C28.07 4.67, 31.27 7.01, 32.8 10.54 C34.32 14.07, 35.31 20.26, 34.15 24.09 C33 27.92, 29.13 31.56, 25.86 33.52 C22.58 35.48, 18.11 36.61, 14.52 35.86 C10.93 35.11, 6.78 31.99, 4.31 29.01 C1.85 26.04, 0.02 21.59, -0.26 17.99 C-0.54 14.39, -0.18 10.35, 2.65 7.4 C5.48 4.45, 14.27 1.29, 16.72 0.28 C19.16 -0.72, 17.39 1.26, 17.32 1.37 M12.86 1 C15.98 -0.63, 20.42 -1.16, 23.57 0.44 C26.73 2.05, 30.24 7.05, 31.79 10.63 C33.34 14.21, 33.38 18.58, 32.86 21.93 C32.34 25.29, 31.56 28.55, 28.68 30.78 C25.8 33, 19.28 35.33, 15.59 35.27 C11.91 35.22, 8.96 32.98, 6.56 30.44 C4.16 27.89, 1.63 23.68, 1.2 20 C0.76 16.32, 1.93 11.66, 3.95 8.38 C5.97 5.09, 11.77 1.67, 13.33 0.29 C14.89 -1.09, 13.3 -0.27, 13.31 0.09" stroke="#1864ab" stroke-width="1" fill="none"></path></g><g stroke-linecap="round" transform="translate(572.9838110605875 66.85415840148926) rotate(0 17.333221435546875 17.812528610229492)"><path d="M19.4 0.37 C22.77 0.58, 26.95 3.11, 29.37 5.82 C31.79 8.53, 33.81 12.77, 33.93 16.64 C34.05 20.51, 32.34 26.08, 30.11 29.04 C27.87 32, 23.88 33.67, 20.5 34.41 C17.12 35.16, 12.9 34.98, 9.81 33.51 C6.72 32.04, 3.45 29.22, 1.94 25.6 C0.44 21.99, -0.18 15.61, 0.77 11.8 C1.73 8, 3.86 4.54, 7.68 2.78 C11.5 1.02, 20.27 0.84, 23.69 1.26 C27.11 1.67, 28.34 4.95, 28.21 5.26 M15.97 0.65 C19.73 0.29, 26.64 1.72, 29.55 3.79 C32.46 5.86, 33.16 9.41, 33.43 13.07 C33.71 16.72, 32.93 21.99, 31.19 25.72 C29.46 29.44, 26.41 34.05, 23.02 35.42 C19.63 36.78, 14.35 35.35, 10.84 33.9 C7.33 32.45, 3.77 29.99, 1.93 26.7 C0.1 23.4, -0.66 17.98, -0.17 14.15 C0.32 10.32, 2.15 6.02, 4.87 3.73 C7.58 1.43, 13.93 1.07, 16.14 0.39 C18.35 -0.29, 17.75 -0.75, 18.11 -0.35" stroke="none" stroke-width="0" fill="#fa5252"></path><path d="M20.45 -0.48 C23.99 -0.33, 28.64 3, 30.87 5.99 C33.09 8.99, 33.67 13.77, 33.8 17.5 C33.93 21.22, 33.67 25.45, 31.63 28.33 C29.59 31.2, 25.14 33.94, 21.55 34.75 C17.96 35.56, 13.32 34.75, 10.09 33.18 C6.85 31.62, 3.53 28.96, 2.15 25.34 C0.78 21.73, 0.87 15.36, 1.83 11.49 C2.8 7.63, 4.69 3.81, 7.95 2.16 C11.2 0.51, 18.84 1.82, 21.36 1.6 C23.89 1.39, 22.96 0.8, 23.1 0.87 M22.2 0.67 C25.89 1.04, 29.47 3.11, 31.64 6.04 C33.81 8.98, 35.73 14.43, 35.24 18.29 C34.76 22.15, 31.67 26.26, 28.74 29.2 C25.8 32.13, 21.31 35.21, 17.65 35.9 C13.99 36.59, 9.66 35.44, 6.78 33.35 C3.9 31.26, 1.15 27.26, 0.38 23.38 C-0.38 19.49, 0.51 13.54, 2.18 10.06 C3.86 6.58, 7.36 4.32, 10.41 2.5 C13.46 0.68, 18.47 -0.82, 20.49 -0.85 C22.5 -0.88, 22.36 1.75, 22.5 2.34" stroke="#e67700" stroke-width="1" fill="none"></path></g><g stroke-linecap="round" transform="translate(574.6917273203532 137.43750190734863) rotate(0 17.333221435546875 17.812528610229492)"><path d="M16.87 0.52 C20.38 0.32, 24.59 1.68, 27.5 4.02 C30.42 6.37, 33.51 10.94, 34.34 14.61 C35.17 18.27, 34.27 22.53, 32.51 26 C30.75 29.48, 27.29 34.12, 23.77 35.45 C20.26 36.78, 15.12 35.58, 11.42 33.99 C7.71 32.39, 3.48 29.16, 1.55 25.9 C-0.38 22.63, -1.05 18.11, -0.17 14.39 C0.71 10.67, 3.75 6.05, 6.8 3.59 C9.85 1.13, 15.97 0.19, 18.12 -0.35 C20.28 -0.89, 19.78 0.08, 19.73 0.33 M14.4 -0.2 C18.12 -1.19, 23.15 1.1, 26.32 2.81 C29.5 4.52, 32.3 6.63, 33.44 10.03 C34.58 13.44, 34.31 19.49, 33.17 23.23 C32.04 26.98, 29.61 30.4, 26.63 32.52 C23.64 34.64, 18.89 36.59, 15.28 35.96 C11.68 35.32, 7.54 31.77, 4.99 28.71 C2.45 25.66, 0.31 21.25, 0 17.64 C-0.31 14.03, 0.75 9.78, 3.12 7.06 C5.5 4.33, 12.62 2.46, 14.26 1.31 C15.89 0.16, 12.98 0.08, 12.92 0.16" stroke="none" stroke-width="0" fill="#40c057"></path><path d="M12.48 -0.25 C16.07 -1.57, 22.13 -0.22, 25.66 1.46 C29.19 3.15, 32.21 6.25, 33.66 9.86 C35.1 13.47, 35.41 19.3, 34.32 23.11 C33.24 26.93, 30.41 30.6, 27.13 32.73 C23.85 34.87, 18.44 36.48, 14.64 35.94 C10.84 35.41, 6.88 32.49, 4.33 29.52 C1.78 26.55, -0.52 21.9, -0.65 18.12 C-0.78 14.33, 0.93 9.83, 3.55 6.82 C6.16 3.81, 12.91 1.05, 15.06 0.05 C17.22 -0.94, 16.55 0.46, 16.46 0.85 M22.49 1.97 C26.18 2.91, 29.32 4.62, 31.49 7.7 C33.65 10.78, 35.69 16.64, 35.48 20.44 C35.27 24.24, 32.87 28.03, 30.22 30.5 C27.57 32.96, 23.28 35.07, 19.57 35.24 C15.87 35.41, 11.14 33.76, 8 31.49 C4.86 29.23, 1.94 25.4, 0.75 21.68 C-0.43 17.95, -0.7 12.58, 0.89 9.13 C2.48 5.67, 7.05 2.25, 10.28 0.94 C13.52 -0.38, 18.48 1.09, 20.3 1.24 C22.13 1.38, 20.88 1.64, 21.25 1.8" stroke="#2b8a3e" stroke-width="1" fill="none"></path></g><g stroke-linecap="round"><g transform="translate(541.733429590861 109.54167938232422) rotate(0 16.833267211914062 -10.833349227905273)"><path d="M-0.48 -0.64 C5.06 -4.33, 28.34 -18.41, 34.02 -21.94 M1.46 1.64 C6.81 -1.89, 28.03 -16.84, 33.25 -20.54" stroke="#000000" stroke-width="1" fill="none"></path></g></g><g stroke-linecap="round"><g transform="translate(593.0666662851969 100.20831680297852) rotate(0 0.8333206176757812 19.166669845581055)"><path d="M0.34 -0.35 C0.67 5.95, 2.38 31.98, 2.41 38.31 M-0.94 -1.57 C-0.75 4.87, 1.23 33.14, 1.86 39.83" stroke="#000000" stroke-width="1" fill="none"></path></g></g><g stroke-linecap="round"><g transform="translate(170.06619651646008 125.52413925098853) rotate(0 28.500017764761026 0.647138233189537)"><path d="M-0.82 0.67 C8.72 1.08, 48.27 2, 58.06 2.29 M0.96 -0.02 C10.35 0.09, 48.22 0.58, 57.67 0.69" stroke="#000000" stroke-width="1" fill="none"></path></g><g transform="translate(170.06619651646008 125.52413925098853) rotate(0 28.500017764761026 0.647138233189537)"><path d="M31.88 11.87 C42.39 8.3, 52.55 2.54, 57.41 2.33 M31.5 10.97 C35.72 7.69, 42.32 6.92, 57.22 0.29" stroke="#000000" stroke-width="1" fill="none"></path></g><g transform="translate(170.06619651646008 125.52413925098853) rotate(0 28.500017764761026 0.647138233189537)"><path d="M32.12 -7.63 C42.52 -3.98, 52.58 -2.52, 57.41 2.33 M31.74 -8.53 C35.84 -7.63, 42.4 -4.24, 57.22 0.29" stroke="#000000" stroke-width="1" fill="none"></path></g></g><g stroke-linecap="round"><g transform="translate(422.0666433970133 122.1666488647461) rotate(0 35.1666259765625 -1.3541507720947266)"><path d="M0.58 -0.29 C12.23 -0.6, 59.4 -1.79, 70.91 -2.1 M-0.57 -1.49 C10.88 -2.13, 58.75 -3.46, 70.27 -3.9" stroke="#000000" stroke-width="1" fill="none"></path></g><g transform="translate(422.0666433970133 122.1666488647461) rotate(0 35.1666259765625 -1.3541507720947266)"><path d="M41.95 8.24 C54.2 1.75, 64.92 -2.53, 71.93 -5.18 M42.28 6.89 C53.05 2.79, 65.02 -0.93, 69.9 -4.06" stroke="#000000" stroke-width="1" fill="none"></path></g><g transform="translate(422.0666433970133 122.1666488647461) rotate(0 35.1666259765625 -1.3541507720947266)"><path d="M41.28 -12.27 C53.75 -10.86, 64.73 -7.24, 71.93 -5.18 M41.61 -13.62 C52.65 -9.74, 64.88 -5.48, 69.9 -4.06" stroke="#000000" stroke-width="1" fill="none"></path></g></g><g stroke-linecap="round" transform="translate(501.26720913785107 52.23568908239969) rotate(0 70.54945714734589 68.3476315352761)"><path d="M77.02 -0.21 C86.78 -0.35, 96.96 4.21, 105.59 9.28 C114.22 14.36, 122.91 21.92, 128.8 30.24 C134.69 38.57, 139.38 49.3, 140.94 59.24 C142.5 69.17, 141.27 80.48, 138.16 89.85 C135.04 99.23, 129.31 108.42, 122.26 115.49 C115.22 122.56, 105.41 128.9, 95.91 132.28 C86.4 135.65, 75.52 136.59, 65.26 135.73 C54.99 134.88, 43.36 132.2, 34.32 127.16 C25.27 122.12, 16.5 113.58, 10.98 105.47 C5.47 97.37, 2.47 88.11, 1.21 78.53 C-0.05 68.95, 0.4 57.43, 3.43 47.99 C6.46 38.55, 12.36 29.04, 19.39 21.91 C26.42 14.78, 35.39 8.74, 45.63 5.21 C55.87 1.68, 74.51 1.04, 80.84 0.73 C87.18 0.43, 83.81 2.27, 83.64 3.37 M75.08 -1.04 C84.58 -0.91, 97.15 5.21, 106.23 10.3 C115.31 15.38, 123.83 21.13, 129.58 29.46 C135.32 37.8, 139.16 50.55, 140.71 60.3 C142.25 70.04, 142.16 78.84, 138.84 87.94 C135.52 97.04, 128.03 107.68, 120.79 114.9 C113.55 122.12, 104.8 127.8, 95.41 131.24 C86.02 134.68, 74.84 135.98, 64.47 135.53 C54.1 135.08, 42.02 133.41, 33.19 128.54 C24.37 123.66, 16.97 114.92, 11.53 106.29 C6.08 97.66, 1.95 86.31, 0.54 76.75 C-0.88 67.19, -0.15 58.09, 3.04 48.91 C6.23 39.73, 12.59 28.88, 19.68 21.67 C26.76 14.45, 36.1 9.23, 45.57 5.61 C55.03 2, 71.34 0.74, 76.45 -0.03 C81.57 -0.81, 76.56 -0.35, 76.25 0.96" stroke="#000000" stroke-width="1" fill="none"></path></g></svg>