<svg version="1.1" xmlns="http://www.w3.org/2000/svg" viewBox="0 0 260.9334004720051 265.5000508626302" width="260.9334004720051" height="265.5000508626302">
  <!-- svg-source:excalidraw -->
  
  <defs>
    <style>
      @font-face {
        font-family: "Virgil";
        src: url("https://excalidraw.com/Virgil.woff2");
      }
      @font-face {
        font-family: "Cascadia";
        src: url("https://excalidraw.com/Cascadia.woff2");
      }
    </style>
  </defs>
  <rect x="0" y="0" width="260.9334004720051" height="265.5000508626302" fill="#ffffff"></rect><g stroke-linecap="round" transform="translate(96.04451497395831 17.74444580078125) rotate(0 20.266652425130218 20.95556640625)"><path d="M26.89 1.78 C30.92 2.57, 34.74 5.85, 37 9.35 C39.26 12.85, 40.94 18.47, 40.45 22.78 C39.96 27.08, 37.21 32.14, 34.04 35.18 C30.88 38.21, 25.9 40.63, 21.45 40.96 C17 41.3, 10.9 39.8, 7.35 37.19 C3.81 34.57, 0.95 29.36, 0.16 25.26 C-0.63 21.16, 0.71 16.39, 2.6 12.59 C4.5 8.79, 7.16 4.11, 11.55 2.45 C15.94 0.79, 25.44 2.31, 28.95 2.63 C32.46 2.94, 32.66 4.18, 32.61 4.34 M29.87 1.49 C33.71 3.04, 36.86 8.7, 38.48 12.95 C40.1 17.2, 40.8 22.7, 39.6 26.98 C38.4 31.26, 34.92 36.39, 31.3 38.64 C27.68 40.89, 22.13 40.86, 17.86 40.47 C13.6 40.07, 8.48 39.16, 5.71 36.25 C2.94 33.34, 1.72 27.41, 1.23 23.01 C0.75 18.62, 0.46 13.81, 2.8 9.88 C5.14 5.95, 10.64 0.76, 15.3 -0.56 C19.96 -1.87, 28.66 1.57, 30.74 2.01 C32.82 2.45, 28.25 1.9, 27.78 2.11" stroke="none" stroke-width="0" fill="#228be6"></path><path d="M18.53 0.16 C22.52 -0.49, 28.32 1.61, 31.9 3.95 C35.47 6.29, 38.71 9.89, 39.99 14.19 C41.28 18.5, 41.23 25.64, 39.61 29.81 C37.98 33.97, 34.28 37.18, 30.25 39.21 C26.22 41.23, 19.8 42.9, 15.45 41.96 C11.1 41.01, 6.86 37.16, 4.15 33.52 C1.45 29.88, -1.15 24.8, -0.78 20.13 C-0.41 15.46, 2.81 8.81, 6.37 5.51 C9.93 2.2, 17.96 1.02, 20.59 0.29 C23.23 -0.43, 22.2 0.69, 22.18 1.16 M15.08 -0.01 C19.01 -1.38, 25.47 -0.43, 29.55 1.67 C33.63 3.78, 37.83 8.33, 39.57 12.62 C41.31 16.91, 41.32 23.22, 39.98 27.42 C38.64 31.61, 35.03 35.53, 31.54 37.8 C28.05 40.07, 23.08 41.37, 19.04 41.04 C15 40.7, 10.63 38.93, 7.3 35.79 C3.97 32.65, -0.54 26.69, -0.93 22.22 C-1.33 17.75, 2.14 12.58, 4.93 8.98 C7.71 5.39, 14.17 1.75, 15.76 0.64 C17.36 -0.47, 14.52 2.08, 14.51 2.31" stroke="#1864ab" stroke-width="1" fill="none"></path></g><g stroke-linecap="round" transform="translate(208.93360392252595 18.433349609374943) rotate(0 20.26665242513019 20.95556640625)"><path d="M27.94 2.49 C31.65 4.07, 35.64 7.54, 37.67 11.55 C39.7 15.55, 41.12 22.24, 40.12 26.51 C39.13 30.77, 35.41 34.5, 31.7 37.15 C27.99 39.8, 22.15 42.53, 17.86 42.41 C13.56 42.3, 8.79 39.7, 5.91 36.45 C3.02 33.2, 0.93 27.46, 0.56 22.92 C0.19 18.38, 1.18 12.85, 3.68 9.2 C6.17 5.54, 11.03 1.81, 15.5 0.99 C19.97 0.18, 27.35 3.6, 30.5 4.31 C33.64 5.03, 34.54 4.99, 34.38 5.26 M21.86 -0.62 C25.72 -0.08, 30.6 3.77, 33.72 7.3 C36.83 10.83, 39.82 16.38, 40.53 20.56 C41.25 24.75, 40.52 28.92, 38.01 32.42 C35.49 35.91, 30.09 40.14, 25.45 41.52 C20.81 42.91, 14.22 42.9, 10.18 40.73 C6.14 38.56, 2.98 32.73, 1.21 28.52 C-0.57 24.3, -1.98 19.43, -0.48 15.44 C1.02 11.45, 6.2 6.95, 10.2 4.56 C14.2 2.17, 21.63 1.59, 23.51 1.11 C25.4 0.62, 21.87 1.74, 21.5 1.68" stroke="none" stroke-width="0" fill="#228be6"></path><path d="M19.16 -0.05 C23.07 -0.88, 28.3 1.15, 31.65 3.67 C35 6.19, 38.23 10.76, 39.25 15.06 C40.27 19.36, 39.64 25.49, 37.79 29.47 C35.94 33.45, 32.03 37.04, 28.17 38.94 C24.32 40.84, 18.82 41.74, 14.65 40.86 C10.49 39.99, 5.48 37.37, 3.2 33.69 C0.93 30.02, 0.47 23.39, 1.01 18.81 C1.55 14.23, 2.63 9.15, 6.44 6.2 C10.25 3.26, 20.24 1.75, 23.87 1.14 C27.51 0.52, 28.46 2.17, 28.26 2.52 M16.12 -0.04 C20.04 -1.15, 26.97 0.44, 30.86 2.72 C34.75 5.01, 38.01 9.44, 39.46 13.65 C40.9 17.87, 41.27 23.75, 39.53 28.02 C37.79 32.28, 32.7 36.78, 29.03 39.24 C25.36 41.7, 21.45 43.77, 17.51 42.77 C13.58 41.77, 8.12 36.91, 5.42 33.23 C2.73 29.56, 1.64 24.76, 1.34 20.71 C1.05 16.66, 1.08 12.53, 3.63 8.92 C6.18 5.3, 14.51 0.45, 16.64 -1 C18.78 -2.44, 16.48 -0.15, 16.44 0.24" stroke="#1864ab" stroke-width="1" fill="none"></path></g><g stroke-linecap="round" transform="translate(92.8000996907553 120.38888549804682) rotate(0 20.266652425130218 20.95556640625)"><path d="M21.94 -0.71 C26.28 -0.44, 32.21 2.93, 35.4 6.47 C38.59 10.01, 40.99 15.99, 41.08 20.52 C41.18 25.04, 38.6 30.27, 35.96 33.62 C33.32 36.97, 29.23 39.63, 25.24 40.6 C21.25 41.57, 16.01 41.45, 12.01 39.45 C8 37.44, 3.01 32.48, 1.19 28.55 C-0.63 24.62, -0.33 19.93, 1.09 15.87 C2.51 11.81, 5.34 6.77, 9.7 4.19 C14.07 1.61, 23.72 0.66, 27.28 0.39 C30.84 0.11, 31.46 2.02, 31.08 2.54 M12.93 2.29 C16.68 0.6, 22.24 0.4, 26.04 1.42 C29.85 2.44, 33.53 4.87, 35.76 8.42 C37.98 11.97, 39.41 18.06, 39.4 22.71 C39.38 27.37, 38.64 33.34, 35.67 36.36 C32.71 39.39, 26.14 40.81, 21.61 40.88 C17.09 40.95, 12.05 39.17, 8.51 36.79 C4.97 34.42, 1.41 30.79, 0.37 26.64 C-0.68 22.48, 0.33 15.81, 2.23 11.86 C4.13 7.92, 10.28 4.37, 11.78 2.94 C13.28 1.52, 11.04 3.01, 11.22 3.32" stroke="none" stroke-width="0" fill="#228be6"></path><path d="M26.79 1.47 C30.69 2.73, 35.43 6.55, 37.65 10.4 C39.87 14.25, 40.84 20.3, 40.12 24.57 C39.4 28.84, 36.59 33.03, 33.32 36.01 C30.05 38.99, 24.71 42.2, 20.52 42.46 C16.33 42.73, 11.66 40.41, 8.17 37.61 C4.68 34.81, 0.52 30.3, -0.42 25.68 C-1.37 21.05, 0.07 13.95, 2.5 9.88 C4.93 5.8, 9.79 2.53, 14.15 1.22 C18.51 -0.09, 25.81 1.63, 28.67 2.03 C31.54 2.43, 31.46 3.34, 31.33 3.61 M23.55 -0.9 C27.55 -0.47, 34.35 2.78, 37.04 6.62 C39.72 10.47, 39.92 17.47, 39.66 22.16 C39.39 26.85, 38.47 31.64, 35.45 34.75 C32.44 37.85, 25.75 40.13, 21.57 40.78 C17.39 41.44, 13.63 40.8, 10.37 38.68 C7.11 36.57, 3.46 32.38, 2.02 28.11 C0.58 23.84, 0.2 17.22, 1.74 13.06 C3.27 8.89, 7.35 5.44, 11.22 3.12 C15.08 0.79, 22.53 -0.75, 24.95 -0.9 C27.37 -1.04, 25.96 1.87, 25.73 2.25" stroke="#1864ab" stroke-width="1" fill="none"></path></g><g stroke-linecap="round" transform="translate(210.4000956217447 121.85562133789062) rotate(0 20.26665242513019 20.95556640625)"><path d="M20.88 0.13 C25.07 -0.29, 29.76 1.53, 33.01 4.45 C36.26 7.37, 39.68 13.23, 40.39 17.64 C41.1 22.05, 39.71 27.09, 37.27 30.92 C34.83 34.75, 29.85 39.14, 25.75 40.6 C21.65 42.06, 16.5 41.4, 12.66 39.7 C8.82 37.99, 4.66 34.26, 2.71 30.36 C0.76 26.46, 0.07 20.49, 0.94 16.3 C1.81 12.12, 4.48 7.91, 7.95 5.25 C11.41 2.59, 19.49 1.03, 21.74 0.34 C23.99 -0.35, 21.47 0.64, 21.44 1.09 M16.04 0.77 C19.74 -0.18, 25.67 -0.78, 29.64 1.6 C33.6 3.98, 38.32 10.79, 39.83 15.06 C41.34 19.34, 40.51 23.36, 38.71 27.26 C36.9 31.15, 32.82 36.08, 29 38.46 C25.18 40.84, 19.75 42.02, 15.79 41.52 C11.83 41.02, 7.97 39.17, 5.24 35.46 C2.51 31.75, -0.77 23.92, -0.59 19.25 C-0.41 14.58, 3.59 10.74, 6.33 7.43 C9.06 4.12, 13.91 0.56, 15.8 -0.6 C17.69 -1.76, 17.32 0.16, 17.67 0.46" stroke="none" stroke-width="0" fill="#228be6"></path><path d="M26.5 1.05 C30.24 2.26, 34.3 6.57, 36.57 10.23 C38.83 13.88, 40.62 18.59, 40.06 22.98 C39.5 27.37, 36.21 33.3, 33.21 36.57 C30.21 39.84, 26.15 42.31, 22.07 42.6 C17.99 42.9, 12.41 41.03, 8.7 38.33 C5 35.64, 1.04 31.06, -0.16 26.41 C-1.36 21.76, -0.66 14.7, 1.5 10.44 C3.67 6.17, 8.22 2.31, 12.84 0.84 C17.45 -0.64, 25.87 0.92, 29.17 1.58 C32.47 2.24, 32.72 4.31, 32.62 4.79 M10.79 3.55 C14.57 1.6, 21.23 -0.24, 25.37 0.64 C29.51 1.52, 33.3 5.25, 35.64 8.83 C37.99 12.41, 39.44 17.68, 39.43 22.14 C39.43 26.61, 38.4 32.38, 35.6 35.6 C32.8 38.82, 26.88 41.17, 22.63 41.45 C18.39 41.74, 13.6 39.76, 10.16 37.31 C6.71 34.86, 3.19 30.99, 1.97 26.76 C0.75 22.52, 1.26 16.02, 2.85 11.89 C4.44 7.77, 10.16 3.55, 11.5 2.01 C12.85 0.47, 10.87 2.25, 10.92 2.65" stroke="#1864ab" stroke-width="1" fill="none"></path></g><g stroke-linecap="round" transform="translate(93.91112263997388 213.5889180501302) rotate(0 20.266652425130218 20.95556640625)"><path d="M28.37 2.03 C32.38 3.72, 37.84 8.84, 39.59 12.96 C41.34 17.08, 40.25 22.42, 38.89 26.76 C37.53 31.11, 34.73 36.59, 31.44 39.02 C28.16 41.44, 23.33 41.76, 19.17 41.3 C15 40.85, 9.52 39.34, 6.44 36.28 C3.36 33.22, 1.24 27.69, 0.7 22.96 C0.15 18.23, 0.76 11.58, 3.15 7.89 C5.55 4.19, 10.38 1.42, 15.07 0.77 C19.75 0.11, 28.12 2.78, 31.28 3.96 C34.43 5.14, 34.08 7.59, 33.99 7.84 M23.91 1.21 C28.09 1.41, 33.59 3.57, 36.29 6.93 C38.99 10.3, 40.2 16.55, 40.12 21.41 C40.05 26.27, 38.48 32.7, 35.82 36.09 C33.16 39.47, 28.65 41.15, 24.17 41.74 C19.69 42.33, 12.8 42.05, 8.94 39.63 C5.08 37.22, 2.31 31.87, 1 27.26 C-0.32 22.64, -0.54 16.21, 1.05 11.92 C2.64 7.64, 6.81 3.41, 10.55 1.56 C14.29 -0.29, 21.36 0.94, 23.51 0.81 C25.66 0.69, 23.38 0.35, 23.44 0.82" stroke="none" stroke-width="0" fill="#228be6"></path><path d="M20.64 -0.76 C24.76 -0.95, 30 1.46, 33.3 4.66 C36.6 7.86, 39.81 13.95, 40.46 18.43 C41.1 22.9, 39.68 27.73, 37.15 31.51 C34.63 35.3, 29.41 39.67, 25.3 41.12 C21.19 42.57, 16.2 42.08, 12.49 40.23 C8.79 38.38, 5.05 34.02, 3.07 30 C1.1 25.98, -0.07 20.25, 0.64 16.11 C1.34 11.97, 3.54 7.79, 7.29 5.15 C11.04 2.5, 20.13 0.89, 23.13 0.25 C26.14 -0.4, 25.17 0.86, 25.34 1.29 M17.53 -0.38 C21.7 -1.11, 27.03 1.64, 30.73 4.12 C34.43 6.61, 38.51 10.25, 39.72 14.53 C40.93 18.82, 39.41 25.45, 37.99 29.83 C36.57 34.21, 34.72 38.87, 31.19 40.8 C27.66 42.72, 21.36 42.63, 16.78 41.36 C12.21 40.09, 6.32 36.86, 3.73 33.2 C1.15 29.54, 1.05 23.59, 1.26 19.4 C1.48 15.21, 2.25 11.37, 5.03 8.05 C7.82 4.73, 15.86 0.65, 17.96 -0.53 C20.06 -1.72, 17.72 0.63, 17.64 0.95" stroke="#1864ab" stroke-width="1" fill="none"></path></g><g stroke-linecap="round"><g transform="translate(134.08892822265625 38.055572509765625) rotate(0 38.22080206502693 -0.9300701936753626)"><path d="M0.31 -0.41 C13.07 -0.25, 64.84 -0.13, 77.43 -0.12 M-0.99 -1.67 C11.62 -1.74, 64.38 -1.63, 77 -1.74" stroke="#1864ab" stroke-width="1" fill="none"></path></g></g><g stroke-linecap="round"><g transform="translate(231.51114908854169 61.16668701171875) rotate(0 -0.1396011181331005 31.181488696915693)"><path d="M-0.65 0.6 C-0.77 10.85, -0.88 52.44, -1.09 62.5 M1.21 -0.13 C1.05 10.32, -0.86 50.55, -1.49 60.89" stroke="#1864ab" stroke-width="1" fill="none"></path></g></g><g stroke-linecap="round"><g transform="translate(213.37788899739581 142.58889770507812) rotate(0 -41.24810005531489 0.4950863837528061)"><path d="M0.71 1.1 C-13.01 1.41, -68.64 1.36, -82.34 1.38 M-0.38 0.63 C-14.24 0.64, -69.65 -0.15, -83.21 -0.39" stroke="#1864ab" stroke-width="1" fill="none"></path></g></g><g stroke-linecap="round"><g transform="translate(114.88895670572913 57.25557454427087) rotate(0 0.8146785471262206 32.56114021352488)"><path d="M0.8 0.25 C0.82 10.87, -0.33 53.88, -0.28 64.65 M-0.24 -0.66 C0.18 10.01, 1.78 54.69, 1.91 65.78" stroke="#1864ab" stroke-width="1" fill="none"></path></g></g><g stroke-linecap="round"><g transform="translate(116.31117757161456 155.74447631835938) rotate(0 -0.4851177664256454 31.354490341527054)"><path d="M-0.55 0.5 C-0.99 11.02, -1.46 52.61, -1.77 63 M1.37 -0.29 C0.75 9.87, -1.59 50.33, -2.34 61.1" stroke="#1864ab" stroke-width="1" fill="none"></path></g></g><g stroke-linecap="round"><g transform="translate(217.28910319010407 49.03333536783856) rotate(0 -43.28149325407111 39.89885701753971)"><path d="M-0.95 0.26 C-15.54 13.75, -72.09 67.35, -86.38 80.45 M0.75 -0.65 C-14.1 12.58, -72.59 65.5, -87.31 78.94" stroke="#1864ab" stroke-width="1" fill="none"></path></g></g><g transform="translate(114.17787679036456 28.000030517578182) rotate(0 3 12.5)"><text x="0" y="17" font-family="Virgil, Segoe UI Emoji" font-size="20px" fill="#fff" text-anchor="start" style="white-space: pre;" direction="ltr">1</text></g><g transform="translate(223.02248128255206 25.333394368489678) rotate(0 7.5 12.5)"><text x="0" y="17" font-family="Virgil, Segoe UI Emoji" font-size="20px" fill="#fff" text-anchor="start" style="white-space: pre;" direction="ltr">2</text></g><g transform="translate(107.34446207682294 128.53336588541663) rotate(0 7.5 12.5)"><text x="0" y="17" font-family="Virgil, Segoe UI Emoji" font-size="20px" fill="#fff" text-anchor="start" style="white-space: pre;" direction="ltr">2</text></g><g transform="translate(225.07784016927081 130.22225952148443) rotate(0 7 12.5)"><text x="0" y="17" font-family="Virgil, Segoe UI Emoji" font-size="20px" fill="#fff" text-anchor="start" style="white-space: pre;" direction="ltr">3</text></g><g transform="translate(107.07786051432282 223.955556233724) rotate(0 7.5 12.5)"><text x="0" y="17" font-family="Virgil, Segoe UI Emoji" font-size="20px" fill="#fff" text-anchor="start" style="white-space: pre;" direction="ltr">2</text></g><g transform="translate(161.822265625 10) rotate(0 3 12.5)"><text x="0" y="17" font-family="Virgil, Segoe UI Emoji" font-size="20px" fill="#000000" text-anchor="start" style="white-space: pre;" direction="ltr">1</text></g><g transform="translate(242.53344726562494 81.11111450195312) rotate(0 3 12.5)"><text x="0" y="17" font-family="Virgil, Segoe UI Emoji" font-size="20px" fill="#000000" text-anchor="start" style="white-space: pre;" direction="ltr">1</text></g><g transform="translate(84.31117757161456 75.77778116861975) rotate(0 7.5 12.5)"><text x="0" y="17" font-family="Virgil, Segoe UI Emoji" font-size="20px" fill="#000000" text-anchor="start" style="white-space: pre;" direction="ltr">2</text></g><g transform="translate(194.88899739583331 82.888926188151) rotate(0 7 12.5)"><text x="0" y="17" font-family="Virgil, Segoe UI Emoji" font-size="20px" fill="#000000" text-anchor="start" style="white-space: pre;" direction="ltr">3</text></g><g transform="translate(172.48893229166663 151.15558878580725) rotate(0 15.500000000000028 25)"><text x="0" y="17" font-family="Virgil, Segoe UI Emoji" font-size="20px" fill="#000000" text-anchor="start" style="white-space: pre;" direction="ltr">0.5</text><text x="0" y="42" font-family="Virgil, Segoe UI Emoji" font-size="20px" fill="#000000" text-anchor="start" style="white-space: pre;" direction="ltr"></text></g><g transform="translate(87.86671956380206 174.2222391764323) rotate(0 3 12.5)"><text x="0" y="17" font-family="Virgil, Segoe UI Emoji" font-size="20px" fill="#000000" text-anchor="start" style="white-space: pre;" direction="ltr">1</text></g><g stroke-linecap="round"><g transform="translate(56.933369954427064 38.76668294270837) rotate(0 15.30143234922707 -1.6790776034196142)"><path d="M0.18 -0.42 C5.6 -0.73, 26.28 -2.8, 31.78 -2.94 M-1.18 -1.68 C4.09 -1.77, 24.86 -1.57, 30.54 -1.81" stroke="#000000" stroke-width="1" fill="none"></path></g><g transform="translate(56.933369954427064 38.76668294270837) rotate(0 15.30143234922707 -1.6790776034196142)"><path d="M14.81 3.17 C18.03 3.68, 23.97 0.89, 31.72 -2.61 M15.48 4.67 C21.19 2.22, 26.47 0.24, 30.19 -1.16" stroke="#000000" stroke-width="1" fill="none"></path></g><g transform="translate(56.933369954427064 38.76668294270837) rotate(0 15.30143234922707 -1.6790776034196142)"><path d="M14.66 -7.92 C17.82 -4.75, 23.8 -4.88, 31.72 -2.61 M15.33 -6.42 C21.12 -4.62, 26.47 -2.37, 30.19 -1.16" stroke="#000000" stroke-width="1" fill="none"></path></g></g><g transform="translate(13.555623372395814 27.02222696940106) rotate(0 18.5 12.5)"><text x="0" y="17" font-family="Virgil, Segoe UI Emoji" font-size="20px" fill="#000000" text-anchor="start" style="white-space: pre;" direction="ltr">c(v)</text></g><g transform="translate(10 73.95558675130212) rotate(0 19.5 12.5)"><text x="0" y="17" font-family="Virgil, Segoe UI Emoji" font-size="20px" fill="#000000" text-anchor="start" style="white-space: pre;" direction="ltr">w(e)</text></g><g stroke-linecap="round"><g transform="translate(53.733418782552064 86.7222798665365) rotate(0 12.900246916214655 0.16742121319745706)"><path d="M-1.04 0.26 C3.38 0.34, 22.28 1.29, 26.84 1.26 M0.61 -0.65 C4.8 -1.02, 20.94 -1, 25.61 -0.73" stroke="#000000" stroke-width="1" fill="none"></path></g><g transform="translate(53.733418782552064 86.7222798665365) rotate(0 12.900246916214655 0.16742121319745706)"><path d="M12.92 3.01 C17.1 1.11, 20 0.03, 24.56 -1.7 M12.97 3.68 C16.72 2.8, 20.67 1.46, 25.65 -0.76" stroke="#000000" stroke-width="1" fill="none"></path></g><g transform="translate(53.733418782552064 86.7222798665365) rotate(0 12.900246916214655 0.16742121319745706)"><path d="M13.16 -6.35 C17.32 -5.22, 20.15 -3.25, 24.56 -1.7 M13.2 -5.69 C16.97 -3.85, 20.85 -2.47, 25.65 -0.76" stroke="#000000" stroke-width="1" fill="none"></path></g></g></svg>