<svg version="1.1" xmlns="http://www.w3.org/2000/svg" viewBox="0 0 506.18886057535815 144.61912595004873" width="506.18886057535815" height="144.61912595004873">
  <!-- svg-source:excalidraw -->
  
  <defs>
    <style>
      @font-face {
        font-family: "Virgil";
        src: url("https://excalidraw.com/Virgil.woff2");
      }
      @font-face {
        font-family: "Cascadia";
        src: url("https://excalidraw.com/Cascadia.woff2");
      }
    </style>
  </defs>
  <rect x="0" y="0" width="506.18886057535815" height="144.61912595004873" fill="#ffffff"></rect><g stroke-linecap="round" transform="translate(150.38749015973207 88.02580977253263) rotate(0 13.145101336261035 13.591936062777478)"><path d="M18.2 1.32 C20.86 2.45, 24.88 5.98, 26 8.66 C27.11 11.35, 25.85 14.63, 24.9 17.45 C23.95 20.27, 22.31 24.07, 20.27 25.6 C18.24 27.12, 15.36 26.92, 12.71 26.61 C10.06 26.3, 6.39 25.67, 4.39 23.74 C2.38 21.8, 1.1 18.16, 0.67 15 C0.25 11.84, 0.33 7.19, 1.84 4.78 C3.35 2.37, 6.72 0.9, 9.74 0.53 C12.76 0.15, 17.95 1.73, 19.96 2.54 C21.97 3.36, 21.8 5.27, 21.78 5.42 M15.33 1.05 C18.07 1.04, 21.81 2, 23.57 4.12 C25.33 6.25, 25.91 10.53, 25.88 13.81 C25.86 17.09, 25.04 21.6, 23.39 23.81 C21.75 26.02, 19 26.72, 16.03 27.09 C13.06 27.45, 8.14 27.59, 5.57 26.01 C3.01 24.43, 1.48 20.72, 0.64 17.6 C-0.2 14.48, -0.48 10.12, 0.54 7.3 C1.57 4.48, 4.39 1.8, 6.79 0.69 C9.19 -0.42, 13.58 0.69, 14.93 0.66 C16.28 0.63, 14.8 0.17, 14.89 0.52" stroke="none" stroke-width="0" fill="#228be6"></path><path d="M13.18 -0.77 C15.84 -0.94, 19.16 0.58, 21.34 2.7 C23.53 4.83, 25.82 9.08, 26.27 11.99 C26.72 14.9, 25.74 17.71, 24.05 20.16 C22.35 22.62, 18.73 25.74, 16.07 26.73 C13.42 27.71, 10.42 27.32, 8.13 26.08 C5.83 24.83, 3.56 21.88, 2.28 19.26 C1 16.65, 0.1 12.98, 0.46 10.37 C0.83 7.77, 2.08 5.35, 4.47 3.65 C6.87 1.94, 12.87 0.61, 14.83 0.14 C16.79 -0.32, 16.06 0.54, 16.25 0.85 M11.37 -0.44 C14.12 -0.88, 17.4 1.35, 19.81 2.99 C22.22 4.63, 25.07 6.63, 25.82 9.41 C26.56 12.19, 25.12 16.76, 24.28 19.68 C23.43 22.6, 22.94 25.73, 20.75 26.92 C18.57 28.1, 14.26 27.73, 11.17 26.8 C8.09 25.87, 3.89 23.74, 2.24 21.33 C0.59 18.91, 1.1 14.94, 1.26 12.33 C1.41 9.71, 1.43 7.79, 3.18 5.64 C4.94 3.48, 10.42 0.22, 11.8 -0.6 C13.18 -1.42, 11.56 0.54, 11.45 0.74" stroke="#1864ab" stroke-width="1" fill="none"></path></g><g stroke-linecap="round"><g transform="translate(230.15915815405856 101.55809769985484) rotate(0 -26.755101081963247 0.2954579589598154)"><path d="M0.71 1.1 C-8.18 1.37, -44.49 1.15, -53.35 1.13 M-0.38 0.63 C-9.41 0.6, -45.5 -0.36, -54.22 -0.64" stroke="#1864ab" stroke-width="1" fill="none"></path></g></g><g stroke-linecap="round" transform="translate(195.588206188946 33.0113220200235) rotate(0 13.145101336261035 13.591936062777478)"><path d="M12.62 0.87 C15.47 0.34, 19.57 0.77, 21.72 2.33 C23.86 3.88, 25.04 7.45, 25.48 10.21 C25.92 12.97, 25.7 16.29, 24.37 18.87 C23.04 21.46, 19.89 24.6, 17.52 25.74 C15.16 26.88, 12.78 26.51, 10.17 25.71 C7.56 24.92, 3.54 23.34, 1.86 20.97 C0.18 18.59, -0.33 14.27, 0.09 11.47 C0.51 8.67, 2.11 6.17, 4.38 4.15 C6.65 2.12, 11.55 -0.19, 13.7 -0.67 C15.85 -1.14, 17.18 0.8, 17.28 1.3 M8.45 1.77 C10.98 0.93, 16.25 0.6, 18.88 1.75 C21.51 2.9, 23.14 5.95, 24.23 8.67 C25.33 11.39, 25.98 15.32, 25.46 18.08 C24.95 20.85, 23.53 23.83, 21.16 25.26 C18.8 26.68, 14.38 26.85, 11.27 26.63 C8.16 26.41, 4.21 25.85, 2.49 23.93 C0.78 22.01, 1.05 18.28, 0.99 15.1 C0.93 11.93, 0.43 7.51, 2.13 4.9 C3.84 2.29, 10.13 0.24, 11.24 -0.55 C12.35 -1.34, 9.16 -0.23, 8.8 0.16" stroke="none" stroke-width="0" fill="#228be6"></path><path d="M17.86 1.12 C20.29 1.85, 22.84 3.72, 24.08 6.18 C25.31 8.65, 25.57 12.97, 25.27 15.92 C24.97 18.87, 24.29 21.98, 22.27 23.87 C20.24 25.75, 15.85 27.03, 13.12 27.24 C10.38 27.46, 7.99 27.07, 5.84 25.15 C3.69 23.22, 0.93 18.58, 0.21 15.69 C-0.51 12.79, 0.37 10.09, 1.52 7.77 C2.68 5.44, 4.35 2.94, 7.14 1.73 C9.92 0.53, 16.12 0.28, 18.25 0.52 C20.39 0.75, 19.97 2.89, 19.93 3.14 M12.36 -1.24 C14.61 -2.08, 17.23 -0.89, 19.27 1.04 C21.31 2.97, 23.52 7.39, 24.58 10.34 C25.63 13.28, 26.42 16.27, 25.6 18.73 C24.78 21.19, 22.17 23.62, 19.67 25.1 C17.17 26.58, 13.55 28.19, 10.6 27.61 C7.65 27.03, 3.95 23.82, 1.96 21.62 C-0.04 19.42, -1.5 17.08, -1.36 14.4 C-1.22 11.72, 0.77 8.04, 2.79 5.54 C4.81 3.03, 9.29 0.14, 10.76 -0.63 C12.24 -1.4, 11.73 0.35, 11.64 0.92" stroke="#1864ab" stroke-width="1" fill="none"></path></g><g stroke-linecap="round" transform="translate(224.9053144612226 89.31045878651992) rotate(0 13.145101336261035 13.591936062777478)"><path d="M12.57 -0.36 C15.4 -0.32, 19.71 2.3, 21.85 4.21 C24 6.12, 25.09 8.35, 25.42 11.08 C25.76 13.81, 25.07 18.05, 23.85 20.59 C22.64 23.14, 20.83 25.31, 18.11 26.35 C15.4 27.4, 10.45 27.85, 7.57 26.87 C4.7 25.9, 2.08 23.14, 0.86 20.48 C-0.35 17.82, -0.35 13.73, 0.28 10.93 C0.92 8.13, 2.34 5.57, 4.67 3.69 C7.01 1.8, 12.52 0.26, 14.28 -0.39 C16.04 -1.05, 15.28 -0.5, 15.24 -0.26 M8.02 0.41 C10.17 -1.32, 14.38 -1.72, 16.84 -0.89 C19.31 -0.07, 21.42 2.82, 22.81 5.34 C24.2 7.86, 25.5 11.22, 25.2 14.25 C24.9 17.28, 22.91 21.41, 21.03 23.53 C19.15 25.66, 16.31 26.59, 13.93 26.98 C11.54 27.37, 9.2 27.82, 6.72 25.88 C4.24 23.94, 0.18 18.26, -0.95 15.34 C-2.08 12.43, -1.57 10.65, -0.06 8.37 C1.46 6.09, 6.65 2.72, 8.13 1.64 C9.62 0.57, 8.65 1.81, 8.86 1.94" stroke="none" stroke-width="0" fill="#228be6"></path><path d="M18.53 0.95 C21.23 1.88, 24.39 5.38, 25.75 8.21 C27.11 11.04, 27.57 15.24, 26.69 17.92 C25.8 20.6, 22.9 22.85, 20.44 24.29 C17.98 25.72, 14.81 26.88, 11.94 26.55 C9.07 26.21, 5.22 24.11, 3.2 22.26 C1.17 20.41, 0.08 18.27, -0.22 15.46 C-0.51 12.66, -0.2 7.93, 1.41 5.44 C3.03 2.94, 6.63 1.08, 9.49 0.49 C12.35 -0.09, 16.81 1.8, 18.57 1.93 C20.33 2.06, 20.16 1.06, 20.05 1.29 M15.58 0.66 C18.3 0.72, 22.07 1.93, 24.07 4.27 C26.07 6.61, 27.76 11.7, 27.58 14.69 C27.41 17.68, 25.08 20.19, 23.03 22.2 C20.97 24.21, 17.97 26.22, 15.25 26.75 C12.52 27.28, 9.05 27.06, 6.68 25.38 C4.3 23.7, 1.99 19.76, 0.99 16.65 C-0.01 13.54, -0.54 9.12, 0.66 6.73 C1.85 4.34, 5.51 3.41, 8.19 2.31 C10.87 1.21, 15.54 0.16, 16.75 0.13 C17.96 0.09, 15.73 2.02, 15.45 2.11" stroke="#1864ab" stroke-width="1" fill="none"></path></g><g stroke-linecap="round"><g transform="translate(164.9187499709846 90.42003996366708) rotate(0 17.024032223675317 -18.544517675888585)"><path d="M-0.95 -1 C4.76 -6.94, 29.05 -30.32, 35 -36.27 M0.75 1.1 C6.21 -5.17, 28.41 -32.1, 33.9 -38.18" stroke="#1864ab" stroke-width="1" fill="none"></path></g></g><g stroke-linecap="round"><g transform="translate(213.3447243425203 52.54127492782965) rotate(0 11.442433452705401 21.965608657409604)"><path d="M1.07 -1.02 C4.34 6.17, 17.28 36.32, 20.62 43.83 M0.17 1.05 C3.71 8.32, 19.41 37.62, 22.72 44.96" stroke="#1864ab" stroke-width="1" fill="none"></path></g></g><g stroke-linecap="round" transform="translate(14.684289121650522 86.98790526583878) rotate(0 13.145101336261039 13.591936062777478)"><path d="M9.46 0.44 C11.9 -0.75, 15.29 -0.5, 17.88 0.62 C20.47 1.74, 23.67 4.57, 25.01 7.15 C26.35 9.73, 26.39 13.33, 25.94 16.11 C25.49 18.88, 24.59 21.96, 22.29 23.81 C19.99 25.67, 15.08 27.19, 12.14 27.24 C9.19 27.29, 6.69 26, 4.62 24.11 C2.55 22.22, 0.14 19, -0.3 15.91 C-0.75 12.81, 0.08 8.28, 1.93 5.54 C3.78 2.79, 8.97 0.43, 10.8 -0.55 C12.63 -1.53, 13.06 -0.77, 12.93 -0.36 M17.17 1.08 C19.7 1.64, 21.94 3.72, 23.33 6.24 C24.72 8.76, 25.6 13.21, 25.51 16.19 C25.41 19.16, 24.54 22.18, 22.77 24.09 C21 26.01, 17.85 27.62, 14.87 27.66 C11.89 27.71, 7.2 26.04, 4.88 24.37 C2.57 22.7, 1.78 20.59, 0.99 17.67 C0.19 14.75, -1.14 9.84, 0.11 6.85 C1.35 3.86, 5.42 0.69, 8.45 -0.27 C11.48 -1.23, 16.74 0.65, 18.3 1.09 C19.86 1.53, 18 2.46, 17.81 2.36" stroke="none" stroke-width="0" fill="#228be6"></path><path d="M10.64 0.51 C13.41 -0.38, 17.12 0.21, 19.54 1.37 C21.95 2.53, 24.03 4.71, 25.14 7.47 C26.26 10.23, 26.97 15.21, 26.23 17.95 C25.48 20.69, 23.17 22.43, 20.68 23.92 C18.2 25.41, 14.05 27.08, 11.32 26.88 C8.58 26.69, 6.04 24.78, 4.29 22.75 C2.54 20.72, 1.03 17.71, 0.83 14.68 C0.64 11.65, 1.61 7.12, 3.12 4.57 C4.62 2.02, 8.5 0.25, 9.85 -0.61 C11.2 -1.47, 11.1 -1.08, 11.21 -0.58 M9.81 0.69 C12.23 0.04, 16.46 0.87, 19.23 1.97 C22 3.06, 25.19 4.65, 26.42 7.24 C27.64 9.84, 27.55 14.51, 26.57 17.55 C25.59 20.6, 22.88 24.14, 20.56 25.51 C18.25 26.88, 15.43 26.34, 12.69 25.79 C9.96 25.25, 6.15 23.9, 4.15 22.25 C2.15 20.61, 0.99 18.53, 0.69 15.92 C0.4 13.3, 0.95 9.33, 2.38 6.58 C3.82 3.84, 7.92 0.19, 9.32 -0.55 C10.72 -1.29, 10.54 1.86, 10.78 2.15" stroke="#1864ab" stroke-width="1" fill="none"></path></g><g stroke-linecap="round"><g transform="translate(92.98243977337142 103.2233214501486) rotate(0 -26.80200221679322 0.33391417960987724)"><path d="M-0.98 -0.57 C-10.09 -0.57, -45.68 0.65, -54.31 0.85 M0.71 1.74 C-8.06 1.29, -43.05 -1.11, -52.02 -1.07" stroke="#1864ab" stroke-width="1" fill="none"></path></g></g><g stroke-linecap="round" transform="translate(59.885005150864004 31.973417513330787) rotate(0 13.145101336261039 13.591936062777478)"><path d="M16.46 0.14 C19.05 0.74, 22.6 3.43, 24.22 5.84 C25.84 8.24, 26.29 11.75, 26.15 14.57 C26.02 17.4, 25.49 20.68, 23.4 22.78 C21.32 24.88, 16.57 26.81, 13.63 27.19 C10.7 27.57, 8.07 26.69, 5.8 25.06 C3.53 23.44, 0.77 20.45, 0 17.42 C-0.76 14.39, -0.07 9.72, 1.23 6.9 C2.53 4.08, 4.89 1.57, 7.8 0.47 C10.71 -0.63, 16.91 0, 18.69 0.29 C20.47 0.58, 18.58 1.94, 18.48 2.21 M14.82 0.24 C17.35 0.67, 20.69 3.57, 22.72 5.93 C24.75 8.29, 26.77 11.53, 27.01 14.39 C27.25 17.24, 26.17 20.94, 24.15 23.05 C22.13 25.15, 17.72 26.46, 14.86 27 C12.01 27.55, 9.58 27.91, 6.99 26.32 C4.41 24.73, 0.29 20.63, -0.67 17.47 C-1.62 14.31, -0.2 9.9, 1.25 7.35 C2.71 4.79, 5.5 3.08, 8.05 2.14 C10.59 1.21, 15.18 2.25, 16.52 1.74 C17.87 1.22, 16.16 -0.94, 16.12 -0.96" stroke="none" stroke-width="0" fill="#228be6"></path><path d="M15.83 0.14 C18.39 0.29, 21.25 1.76, 23.07 4.07 C24.89 6.37, 26.67 11.1, 26.75 13.96 C26.83 16.82, 25.49 19.08, 23.57 21.21 C21.64 23.34, 17.91 26.06, 15.21 26.73 C12.51 27.39, 9.63 26.57, 7.37 25.22 C5.11 23.86, 2.67 21.46, 1.66 18.62 C0.65 15.77, 0.67 11.06, 1.3 8.14 C1.93 5.21, 3.07 2.55, 5.46 1.09 C7.84 -0.37, 13.83 -0.71, 15.62 -0.61 C17.41 -0.52, 16.27 1.11, 16.2 1.64 M10.24 1.31 C12.96 0.28, 17.37 -0.4, 19.94 0.76 C22.5 1.93, 24.69 5.44, 25.63 8.28 C26.58 11.12, 26.32 15.29, 25.61 17.79 C24.9 20.28, 23.56 21.85, 21.36 23.23 C19.16 24.61, 15.18 25.87, 12.39 26.05 C9.6 26.23, 6.67 26.03, 4.64 24.3 C2.61 22.56, 0.63 18.86, 0.2 15.63 C-0.24 12.4, 0.28 7.21, 2.03 4.92 C3.78 2.64, 9.28 2.69, 10.69 1.9 C12.09 1.11, 10.59 0.21, 10.46 0.17" stroke="#1864ab" stroke-width="1" fill="none"></path></g><g stroke-linecap="round" transform="translate(89.80218056181252 90.3392046704522) rotate(0 13.145101336261039 13.591936062777478)"><path d="M16.21 0.79 C18.9 1.32, 22.33 3.2, 23.97 5.68 C25.62 8.16, 26.4 12.88, 26.08 15.68 C25.77 18.48, 24.02 20.55, 22.07 22.48 C20.12 24.42, 17.07 26.99, 14.39 27.29 C11.7 27.59, 8.22 25.98, 5.95 24.29 C3.67 22.6, 1.68 19.85, 0.73 17.16 C-0.23 14.46, -0.77 10.65, 0.23 8.13 C1.24 5.6, 3.71 3.23, 6.74 1.99 C9.77 0.74, 15.94 0.36, 18.41 0.67 C20.88 0.97, 21.58 3.42, 21.55 3.82 M13.57 -0.67 C16.31 -0.48, 20.6 1.96, 22.78 4.21 C24.96 6.45, 26.32 10.09, 26.66 12.81 C27 15.53, 26.37 18.11, 24.79 20.5 C23.21 22.9, 19.77 26.46, 17.19 27.18 C14.62 27.9, 12.03 25.97, 9.34 24.83 C6.65 23.69, 2.78 22.48, 1.05 20.34 C-0.68 18.2, -1.78 14.78, -1.03 12 C-0.29 9.23, 2.83 5.62, 5.51 3.7 C8.2 1.78, 13.97 0.9, 15.07 0.48 C16.17 0.05, 12.35 1.07, 12.1 1.14" stroke="none" stroke-width="0" fill="#228be6"></path><path d="M17.1 0.6 C19.57 1.26, 21.99 4.28, 23.6 6.78 C25.2 9.29, 27.15 12.9, 26.72 15.64 C26.29 18.39, 23.23 21.22, 21.02 23.25 C18.81 25.28, 16.15 27.5, 13.46 27.82 C10.77 28.14, 7.04 26.95, 4.88 25.16 C2.72 23.37, 1.24 20.2, 0.51 17.06 C-0.21 13.92, -0.61 9.06, 0.53 6.32 C1.66 3.57, 4.46 1.53, 7.32 0.6 C10.19 -0.33, 15.48 0.53, 17.74 0.72 C19.99 0.92, 20.63 1.56, 20.85 1.76 M15.09 1.5 C17.67 1.57, 20.07 2.9, 22.04 4.67 C24.01 6.44, 26.43 9.26, 26.89 12.13 C27.36 15, 26.77 19.43, 24.82 21.89 C22.86 24.34, 18.24 26.11, 15.18 26.88 C12.12 27.65, 8.65 27.77, 6.48 26.53 C4.3 25.29, 3.05 22.23, 2.15 19.45 C1.25 16.67, 0.66 12.48, 1.06 9.84 C1.46 7.2, 2.11 5.11, 4.54 3.62 C6.98 2.13, 14.16 1.47, 15.67 0.93 C17.19 0.39, 13.94 0.46, 13.66 0.38" stroke="#1864ab" stroke-width="1" fill="none"></path></g><g stroke-linecap="round"><g transform="translate(32.765147853400066 94.71491304700152) rotate(0 17.279074021306737 -18.503724234480245)"><path d="M0.39 0.74 C6.39 -5.12, 29.62 -29.74, 35.43 -35.98 M-0.87 0.08 C5.04 -6.06, 28.67 -31.83, 34.55 -37.75" stroke="#1864ab" stroke-width="1" fill="none"></path></g></g><g stroke-linecap="round"><g transform="translate(78.48643177817021 53.111293650724235) rotate(0 11.073104519435685 22.63465025079637)"><path d="M0.74 0.14 C4.62 7.51, 18.98 37.3, 22.48 44.58 M-0.33 -0.83 C3.52 6.7, 18.34 38.5, 21.89 46.1" stroke="#1864ab" stroke-width="1" fill="none"></path></g></g><g stroke-linecap="round"><g transform="translate(112.48063233556047 102.96910914819227) rotate(0 20.701309231107224 -1.7303216804269255)"><path d="M0.15 -0.23 C7.33 -0.38, 35.5 -1.14, 42.64 -1.56 M-1.23 -1.4 C5.8 -1.81, 34.3 -3.19, 41.55 -3.23" stroke="#1864ab" stroke-width="1" fill="none"></path></g></g><g stroke-linecap="round"><g transform="translate(260.1234538461094 71.338108327714) rotate(0 65.52361869635322 -0.02930900236080447)"><path d="M-1.04 -0.2 C20.88 -0.12, 109.77 -0.29, 132.09 -0.17 M0.61 -1.36 C22.3 -1.01, 108.98 1.33, 130.93 1.3" stroke="#000000" stroke-width="1" fill="none"></path></g><g transform="translate(260.1234538461094 71.338108327714) rotate(0 65.52361869635322 -0.02930900236080447)"><path d="M102.25 10.48 C112.2 8.65, 123.12 5.62, 132.89 2.07 M102.04 11.53 C109.77 9.22, 118.03 5.44, 130.05 1.08" stroke="#000000" stroke-width="1" fill="none"></path></g><g transform="translate(260.1234538461094 71.338108327714) rotate(0 65.52361869635322 -0.02930900236080447)"><path d="M102.55 -10.04 C112.28 -4.8, 123.1 -0.76, 132.89 2.07 M102.35 -8.99 C110.09 -5.64, 118.27 -3.76, 130.05 1.08" stroke="#000000" stroke-width="1" fill="none"></path></g></g><g transform="translate(282.24212150626494 49.73817089966644) rotate(0 39.889356921009096 8.107592870123796)"><text x="0" y="10.215185740247602" font-family="Virgil, Segoe UI Emoji" font-size="12.972148592198076px" fill="#000000" text-anchor="start" style="white-space: pre;" direction="ltr">node induced</text></g><g transform="translate(10 113.08537116335674) rotate(0 4.864555722074279 8.107592870123796)"><text x="0" y="10.215185740247602" font-family="Virgil, Segoe UI Emoji" font-size="12.972148592198078px" fill="#000000" text-anchor="start" style="white-space: pre;" direction="ltr">0</text></g><g transform="translate(77.45517267943 13.805164906639902) rotate(0 1.9458222888297119 8.107592870123796)"><text x="0" y="10.215185740247602" font-family="Virgil, Segoe UI Emoji" font-size="12.972148592198078px" fill="#000000" text-anchor="start" style="white-space: pre;" direction="ltr">1</text></g><g transform="translate(97.51879285271923 117.58239323208056) rotate(0 4.8645557220742806 8.107592870123796)"><text x="0" y="10.215185740247602" font-family="Virgil, Segoe UI Emoji" font-size="12.972148592198078px" fill="#000000" text-anchor="start" style="white-space: pre;" direction="ltr">2</text></g><g transform="translate(159.09328852104224 115.8527602238355) rotate(0 4.540252007269327 8.107592870123796)"><text x="0" y="10.215185740247602" font-family="Virgil, Segoe UI Emoji" font-size="12.972148592198081px" fill="#000000" text-anchor="start" style="white-space: pre;" direction="ltr">3</text></g><g transform="translate(236.23434270607498 114.8150041716018) rotate(0 4.215948292464375 8.107592870123796)"><text x="0" y="10.215185740247602" font-family="Virgil, Segoe UI Emoji" font-size="12.972148592198074px" fill="#000000" text-anchor="start" style="white-space: pre;" direction="ltr">5</text></g><g transform="translate(202.67971570839887 10) rotate(0 4.5402520072693235 8.107592870123796)"><text x="0" y="10.215185740247602" font-family="Virgil, Segoe UI Emoji" font-size="12.972148592198081px" fill="#000000" text-anchor="start" style="white-space: pre;" direction="ltr">4</text></g><g stroke-linecap="round" transform="translate(395.3808336013458 87.80945224356026) rotate(0 13.145101336261035 13.591936062777478)"><path d="M11.25 0.18 C14.1 -0.43, 18.06 0.1, 20.58 1.64 C23.09 3.18, 25.57 6.67, 26.35 9.41 C27.13 12.16, 26.37 15.3, 25.24 18.09 C24.1 20.88, 21.96 24.77, 19.54 26.17 C17.12 27.57, 13.7 27.17, 10.73 26.48 C7.77 25.79, 3.43 24.33, 1.74 22.04 C0.05 19.74, 0.15 15.64, 0.61 12.71 C1.07 9.77, 2.61 6.62, 4.48 4.44 C6.36 2.26, 10.18 0.33, 11.85 -0.38 C13.53 -1.09, 14.51 -0.08, 14.53 0.19 M17.84 0.76 C20.56 1.31, 24.24 3.25, 25.83 5.66 C27.43 8.07, 28.16 12.09, 27.42 15.22 C26.68 18.35, 23.99 22.27, 21.41 24.43 C18.83 26.6, 14.66 28.52, 11.95 28.22 C9.23 27.93, 6.83 24.51, 5.13 22.67 C3.42 20.83, 2.26 19.92, 1.7 17.17 C1.14 14.43, 0.83 9.07, 1.78 6.19 C2.74 3.31, 4.81 0.82, 7.42 -0.09 C10.04 -1.01, 15.94 0.42, 17.49 0.7 C19.05 0.97, 16.92 1.15, 16.74 1.54" stroke="none" stroke-width="0" fill="#228be6"></path><path d="M18.92 0.81 C21.29 1.96, 22.81 5.41, 23.95 8 C25.09 10.59, 26.42 13.45, 25.76 16.36 C25.11 19.27, 22.21 23.54, 20 25.45 C17.79 27.36, 15.2 28.21, 12.5 27.8 C9.81 27.4, 5.75 25.21, 3.83 23.03 C1.92 20.85, 1.43 17.56, 1.02 14.75 C0.62 11.94, 0.02 8.52, 1.4 6.17 C2.78 3.82, 6.43 1.29, 9.31 0.65 C12.19 0.01, 16.88 2.03, 18.68 2.33 C20.49 2.63, 20.21 2.45, 20.15 2.45 M15.01 -0.55 C17.52 -0.69, 20.09 1.4, 22.08 3.48 C24.08 5.56, 26.75 9.16, 26.97 11.9 C27.18 14.65, 25.25 17.64, 23.36 19.95 C21.46 22.25, 18.37 24.77, 15.6 25.73 C12.82 26.68, 9.24 26.94, 6.72 25.68 C4.2 24.42, 1.61 20.99, 0.46 18.17 C-0.69 15.36, -1.14 11.43, -0.18 8.81 C0.78 6.19, 3.88 3.82, 6.23 2.46 C8.58 1.1, 12.4 1.26, 13.91 0.66 C15.43 0.05, 15.22 -1.22, 15.3 -1.15" stroke="#1864ab" stroke-width="1" fill="none"></path></g><g stroke-linecap="round"><g transform="translate(475.2388162527146 101.2618508126726) rotate(0 -26.981959105438165 0.28176899873071193)"><path d="M-1.11 0.98 C-10.05 1.09, -44.9 -0.27, -53.51 -0.41 M0.5 0.44 C-8.6 0.77, -45.51 0.53, -54.47 0.67" stroke="#1864ab" stroke-width="1" fill="none"></path></g></g><g stroke-linecap="round" transform="translate(440.5815496305596 32.79496449105136) rotate(0 13.145101336261035 13.591936062777478)"><path d="M13.57 -0.53 C16.4 -0.71, 20.24 1.25, 22.33 3.1 C24.41 4.95, 25.66 7.6, 26.08 10.58 C26.5 13.56, 26.19 18.4, 24.85 20.98 C23.51 23.55, 20.9 25.1, 18.03 26.03 C15.16 26.96, 10.23 27.54, 7.61 26.55 C4.98 25.55, 3.37 22.62, 2.3 20.06 C1.23 17.5, 0.93 14.09, 1.21 11.19 C1.48 8.3, 1.74 4.6, 3.94 2.72 C6.13 0.84, 12.8 0.33, 14.39 -0.09 C15.98 -0.5, 13.47 -0.09, 13.47 0.21 M15.46 -1.02 C18.31 -1.09, 21.87 0.92, 23.63 3.21 C25.38 5.5, 26.12 9.54, 25.97 12.71 C25.82 15.89, 24.21 20.18, 22.73 22.27 C21.25 24.37, 19.33 24.47, 17.08 25.28 C14.84 26.09, 11.86 28.2, 9.24 27.12 C6.62 26.04, 3.04 21.79, 1.38 18.82 C-0.29 15.85, -1.41 12.03, -0.74 9.31 C-0.07 6.59, 3.04 3.94, 5.4 2.47 C7.75 1.01, 12.05 0.73, 13.38 0.54 C14.71 0.34, 13.2 1.23, 13.37 1.28" stroke="none" stroke-width="0" fill="#228be6"></path><path d="M7.52 1.4 C9.84 0.24, 14.63 -0.64, 17.28 0.39 C19.93 1.42, 21.94 4.91, 23.43 7.57 C24.93 10.24, 26.57 13.75, 26.24 16.39 C25.91 19.03, 23.45 21.69, 21.45 23.42 C19.46 25.14, 17.17 26.63, 14.28 26.75 C11.38 26.88, 6.44 25.93, 4.09 24.18 C1.74 22.42, 0.6 18.94, 0.18 16.24 C-0.25 13.54, -0.4 10.53, 1.53 7.97 C3.46 5.41, 9.81 2.19, 11.74 0.87 C13.68 -0.45, 13.26 -0.14, 13.16 0.07 M15.6 -0.06 C18.22 0.38, 22.53 2.75, 24.2 4.89 C25.87 7.02, 26 9.93, 25.6 12.73 C25.2 15.53, 23.74 19.36, 21.8 21.69 C19.86 24.02, 16.72 26.36, 13.98 26.71 C11.25 27.06, 7.7 25.51, 5.38 23.79 C3.07 22.07, 0.71 18.94, 0.1 16.38 C-0.51 13.83, 0.63 10.8, 1.74 8.45 C2.85 6.09, 4.2 3.86, 6.75 2.26 C9.3 0.65, 15.48 -0.83, 17.05 -1.18 C18.62 -1.52, 16.58 -0.21, 16.17 0.2" stroke="#1864ab" stroke-width="1" fill="none"></path></g><g stroke-linecap="round" transform="translate(469.8986579028361 89.09410125754789) rotate(0 13.145101336261035 13.591936062777478)"><path d="M11.05 0.75 C13.65 0.19, 17.87 0.64, 20.18 2.18 C22.5 3.73, 24.04 7.16, 24.97 10.04 C25.89 12.91, 26.76 16.98, 25.72 19.43 C24.68 21.89, 21.27 23.45, 18.71 24.78 C16.15 26.11, 13.09 27.76, 10.37 27.42 C7.66 27.08, 4.11 25.3, 2.4 22.73 C0.68 20.16, -0.03 14.96, 0.1 11.99 C0.23 9.03, 1.08 7.05, 3.17 4.93 C5.26 2.81, 10.88 -0.08, 12.65 -0.74 C14.43 -1.4, 13.73 0.6, 13.81 0.98 M13.33 1.37 C15.91 1.2, 19.64 2.16, 21.87 3.8 C24.11 5.44, 26.23 8.22, 26.74 11.22 C27.24 14.23, 26.84 19, 24.89 21.84 C22.95 24.67, 17.77 27.55, 15.06 28.23 C12.35 28.92, 11.06 27.62, 8.63 25.93 C6.21 24.24, 2.02 20.77, 0.5 18.1 C-1.01 15.43, -1.32 12.65, -0.47 9.91 C0.38 7.17, 3.04 3.43, 5.6 1.67 C8.16 -0.09, 13.27 -0.51, 14.89 -0.66 C16.51 -0.82, 15.54 0.6, 15.34 0.71" stroke="none" stroke-width="0" fill="#228be6"></path><path d="M17.39 0.39 C19.99 1, 22.11 2.62, 23.74 5.09 C25.37 7.57, 27.31 12.24, 27.16 15.25 C27.01 18.26, 25.11 21.02, 22.84 23.16 C20.56 25.3, 16.49 27.99, 13.5 28.09 C10.51 28.19, 7.08 25.65, 4.9 23.76 C2.72 21.86, 0.98 19.43, 0.4 16.71 C-0.17 13.98, 0.05 9.83, 1.46 7.4 C2.88 4.97, 6.09 3.21, 8.9 2.12 C11.71 1.03, 16.77 0.97, 18.31 0.87 C19.85 0.78, 18.22 1.27, 18.13 1.54 M16.88 1.41 C19.53 2.02, 22.69 3.56, 24.03 5.71 C25.37 7.86, 25.42 11.5, 24.91 14.32 C24.41 17.14, 22.95 20.62, 21.01 22.62 C19.07 24.62, 16.16 26.12, 13.27 26.31 C10.38 26.49, 6.09 25.24, 3.67 23.73 C1.26 22.21, -0.83 20, -1.2 17.22 C-1.58 14.45, -0.27 9.55, 1.41 7.06 C3.08 4.56, 6.46 3.23, 8.85 2.24 C11.24 1.25, 14.43 1.47, 15.76 1.1 C17.08 0.72, 16.66 -0.1, 16.79 -0.02" stroke="#1864ab" stroke-width="1" fill="none"></path></g><g stroke-linecap="round"><g transform="translate(409.88533304719385 90.06579106942428) rotate(0 17.02786231980093 -18.55071595294291)"><path d="M-0.87 0.69 C4.78 -5.61, 28.8 -31.53, 34.93 -37.79 M0.87 0.01 C6.25 -6.18, 28.03 -30.9, 33.8 -36.85" stroke="#1864ab" stroke-width="1" fill="none"></path></g></g><g stroke-linecap="round"><g transform="translate(458.5390304524378 52.522112402080836) rotate(0 11.192443422178286 21.825519354005507)"><path d="M0.69 -0.35 C4.14 7.33, 17.19 37.81, 20.67 45.24 M-0.41 -1.59 C3.4 5.82, 19.27 35.63, 22.79 43.44" stroke="#1864ab" stroke-width="1" fill="none"></path></g></g><g transform="translate(390.69654447969543 113.90691814107788) rotate(0 4.864555722074272 8.107592870123796)"><text x="0" y="10.215185740247602" font-family="Virgil, Segoe UI Emoji" font-size="12.972148592198078px" fill="#000000" text-anchor="start" style="white-space: pre;" direction="ltr">0</text></g><g transform="translate(458.1517171591253 14.626711884360589) rotate(0 1.945822288829703 8.107592870123796)"><text x="0" y="10.215185740247602" font-family="Virgil, Segoe UI Emoji" font-size="12.972148592198078px" fill="#000000" text-anchor="start" style="white-space: pre;" direction="ltr">1</text></g><g transform="translate(478.2153373324146 118.40394020980114) rotate(0 4.864555722074272 8.107592870123796)"><text x="0" y="10.215185740247602" font-family="Virgil, Segoe UI Emoji" font-size="12.972148592198078px" fill="#000000" text-anchor="start" style="white-space: pre;" direction="ltr">2</text></g></svg>