<svg version="1.1" xmlns="http://www.w3.org/2000/svg" viewBox="0 0 150.28224431670083 139.98264550182546" width="150.28224431670083" height="139.98264550182546">
  <!-- svg-source:excalidraw -->
  
  <defs>
    <style>
      @font-face {
        font-family: "Virgil";
        src: url("https://excalidraw.com/Virgil.woff2");
      }
      @font-face {
        font-family: "Cascadia";
        src: url("https://excalidraw.com/Cascadia.woff2");
      }
    </style>
  </defs>
  <rect x="0" y="0" width="150.28224431670083" height="139.98264550182546" fill="#ffffff"></rect><g stroke-linecap="round" transform="translate(30.442106725016515 19.78777722621618) rotate(0 47.66434208121123 47.180056763338115)"><path d="M52.67 -0.12 C61.09 0.03, 71.95 4.89, 78.72 10.47 C85.49 16.05, 90.73 25.08, 93.29 33.34 C95.85 41.6, 96.53 51.85, 94.1 60.01 C91.68 68.18, 85.19 76.84, 78.74 82.34 C72.28 87.83, 63.65 91.61, 55.36 92.98 C47.06 94.36, 36.92 93.97, 28.96 90.61 C20.99 87.25, 12.53 79.81, 7.58 72.84 C2.64 65.87, -0.57 57.06, -0.71 48.8 C-0.85 40.53, 2.29 30.57, 6.74 23.24 C11.19 15.91, 16.69 8.5, 25.99 4.84 C35.28 1.19, 55.27 0.99, 62.5 1.3 C69.74 1.61, 69.77 5.68, 69.4 6.7 M51.42 -1.2 C59.45 -1.17, 70.54 4.98, 77.31 10.37 C84.07 15.76, 89.44 23.37, 92.01 31.16 C94.59 38.95, 94.44 48.58, 92.77 57.11 C91.09 65.64, 88 76.24, 81.96 82.34 C75.92 88.45, 65.12 92.33, 56.52 93.74 C47.92 95.15, 38.25 93.79, 30.36 90.82 C22.46 87.84, 14.3 82.64, 9.17 75.88 C4.04 69.13, 0.24 59.15, -0.43 50.3 C-1.1 41.45, 0.84 30.1, 5.17 22.78 C9.49 15.45, 17.71 10.36, 25.5 6.35 C33.29 2.34, 47.29 -0.37, 51.92 -1.26 C56.56 -2.15, 53.29 -0.2, 53.33 1.02" stroke="#000000" stroke-width="1" fill="none"></path></g><g stroke-linecap="round"><g transform="translate(17.542929723139537 41.57958191843602) rotate(0 52.67788059574002 43.62477644662212)"><path d="M-0.66 -0.07 C9.24 2.99, 42.19 2.71, 59.97 17.46 C77.75 32.21, 98.53 76.67, 106.01 88.4 M1.2 -1.15 C10.86 2.2, 41.48 4.45, 58.82 19.06 C76.16 33.68, 97.62 74.86, 105.24 86.55" stroke="#000000" stroke-width="1" fill="none"></path></g></g><g stroke-linecap="round"><g transform="translate(29.30155984134251 101.69104935719406) rotate(0 38.93632917986059 -43.45332108619006)"><path d="M0.38 -0.31 C4.09 -6.47, 9.58 -23.05, 22.64 -37.43 C35.71 -51.82, 69.46 -78.57, 78.75 -86.6 M-0.88 -1.51 C2.68 -7.42, 8.77 -21.82, 21.92 -35.85 C35.06 -49.88, 68.58 -77.59, 78 -85.68" stroke="#000000" stroke-width="1" fill="none"></path></g></g><g stroke-linecap="round"><g transform="translate(54.35873501668277 124.87707148590039) rotate(0 42.542602742036024 -45.85184975222535)"><path d="M-0.84 0.64 C3.19 -6.13, 8.91 -24.33, 23.37 -39.82 C37.83 -55.32, 75.5 -83.86, 85.92 -92.34 M0.92 -0.07 C4.83 -6.72, 8.28 -23.18, 22.27 -38.42 C36.26 -53.67, 74.28 -82.45, 84.88 -91.54" stroke="#000000" stroke-width="1" fill="none"></path></g></g><g transform="translate(10 10) rotate(0 16.129427233796008 7.200637157944655)"><text x="0" y="10.401274315889303" font-family="Virgil, Segoe UI Emoji" font-size="11.521019452711435px" fill="#000000" text-anchor="start" style="white-space: pre;" direction="ltr">k = 6</text></g><g transform="translate(57.91916921582117 32.927295520602854) rotate(0 1.1470021355644064 4.779175564851627)"><text x="0" y="5.558351129703267" font-family="Virgil, Segoe UI Emoji" font-size="7.64668090376262px" fill="#000000" text-anchor="start" style="white-space: pre;" direction="ltr">1</text></g><g transform="translate(89.93327482196219 48.016760616712475) rotate(0 2.8675053389109735 4.779175564851627)"><text x="0" y="5.558351129703267" font-family="Virgil, Segoe UI Emoji" font-size="7.646680903762621px" fill="#000000" text-anchor="start" style="white-space: pre;" direction="ltr">2</text></g><g transform="translate(107.46964046996663 68.61182196204038) rotate(0 2.6763383163169294 4.779175564851641)"><text x="0" y="5.558351129703267" font-family="Virgil, Segoe UI Emoji" font-size="7.64668090376262px" fill="#000000" text-anchor="start" style="white-space: pre;" direction="ltr">3</text></g><g transform="translate(86.46676236598955 96.13987321558614) rotate(0 2.6763383163169294 4.779175564851641)"><text x="0" y="5.558351129703267" font-family="Virgil, Segoe UI Emoji" font-size="7.64668090376262px" fill="#000000" text-anchor="start" style="white-space: pre;" direction="ltr">4</text></g><g transform="translate(59.75435629765195 77.17609057276366) rotate(0 2.485171293722857 4.779175564851641)"><text x="0" y="5.558351129703267" font-family="Virgil, Segoe UI Emoji" font-size="7.646680903762617px" fill="#000000" text-anchor="start" style="white-space: pre;" direction="ltr">5</text></g><g transform="translate(40.790585322738366 56.37713251602054) rotate(0 2.6763383163169294 4.779175564851641)"><text x="0" y="5.558351129703267" font-family="Virgil, Segoe UI Emoji" font-size="7.64668090376262px" fill="#000000" text-anchor="start" style="white-space: pre;" direction="ltr">6</text></g></svg>