<svg version="1.1" xmlns="http://www.w3.org/2000/svg" viewBox="0 0 313.00316717800865 287.58714418906004" width="313.00316717800865" height="287.58714418906004">
  <!-- svg-source:excalidraw -->
  
  <defs>
    <style>
      @font-face {
        font-family: "Virgil";
        src: url("https://excalidraw.com/Virgil.woff2");
      }
      @font-face {
        font-family: "Cascadia";
        src: url("https://excalidraw.com/Cascadia.woff2");
      }
    </style>
  </defs>
  <rect x="0" y="0" width="313.00316717800865" height="287.58714418906004" fill="#ffffff"></rect><g stroke-linecap="round" transform="translate(56.033635087989126 32.041121847914525) rotate(0 107.33546006735097 106.24489665814231)"><path d="M119.55 0.31 C132.17 -0.02, 146.99 5.97, 158.54 12.14 C170.1 18.32, 180.5 27.53, 188.89 37.38 C197.29 47.23, 204.78 59.24, 208.92 71.25 C213.06 83.27, 214.17 96.89, 213.71 109.47 C213.25 122.05, 210.99 134.93, 206.15 146.71 C201.32 158.49, 193.75 170.93, 184.7 180.14 C175.65 189.35, 163.72 196.51, 151.85 201.97 C139.98 207.42, 126.3 211.82, 113.45 212.87 C100.6 213.92, 87.09 212.19, 74.73 208.26 C62.37 204.33, 49.24 197.57, 39.28 189.3 C29.32 181.04, 21.36 169.71, 14.98 158.67 C8.61 147.64, 3.17 135.43, 1.03 123.07 C-1.11 110.7, -0.68 96.93, 2.14 84.49 C4.96 72.06, 10.68 59.36, 17.93 48.46 C25.18 37.56, 35.28 26.61, 45.63 19.09 C55.97 11.57, 65.41 6.09, 79.99 3.34 C94.56 0.59, 122.41 1.8, 133.07 2.58 C143.73 3.36, 144.56 6.04, 143.96 8 M141.65 5.28 C153.91 7.74, 166.26 17.4, 176.06 25.72 C185.87 34.05, 194.44 44.44, 200.48 55.25 C206.53 66.05, 210.51 77.84, 212.34 90.54 C214.18 103.23, 214.27 119.09, 211.49 131.43 C208.72 143.77, 202.72 154.21, 195.7 164.57 C188.68 174.93, 179.91 185.89, 169.38 193.6 C158.86 201.3, 145.44 207.72, 132.58 210.79 C119.72 213.87, 104.86 214.16, 92.21 212.07 C79.57 209.97, 67.74 204.48, 56.7 198.22 C45.66 191.96, 34.75 184.32, 25.99 174.5 C17.24 164.68, 8.73 151.51, 4.17 139.3 C-0.39 127.09, -2.17 113.71, -1.36 101.25 C-0.54 88.79, 3.84 76.29, 9.07 64.54 C14.29 52.79, 20.79 40.15, 30 30.73 C39.22 21.31, 52.27 12.95, 64.36 8.01 C76.46 3.07, 89.56 1.47, 102.56 1.11 C115.57 0.76, 136.27 4.95, 142.38 5.89 C148.5 6.83, 139.82 5.34, 139.25 6.76" stroke="#000000" stroke-width="1" fill="none"></path></g><g stroke-linecap="round"><g transform="translate(26.162893219110885 79.67006228266021) rotate(0 119.050014240633 98.38178560812732)"><path d="M-0.66 -0.07 C21.84 6.61, 95.63 6.16, 135.54 39.16 C175.44 72.16, 221.74 171.55, 238.76 197.92 M1.2 -1.15 C23.45 5.82, 94.92 7.89, 134.39 40.76 C173.85 73.63, 220.83 169.74, 237.98 196.06" stroke="#000000" stroke-width="1" fill="none"></path></g></g><g stroke-linecap="round"><g transform="translate(52.367236370856176 215.53451529552046) rotate(0 88.20484234756685 -97.18919628525694)"><path d="M0.38 -0.31 C8.73 -14.3, 20.99 -52.11, 50.47 -84.41 C79.95 -116.7, 156.21 -175.96, 177.29 -194.07 M-0.88 -1.51 C7.31 -15.25, 20.17 -50.88, 49.74 -82.82 C79.31 -114.76, 155.33 -174.98, 176.54 -193.15" stroke="#000000" stroke-width="1" fill="none"></path></g></g><g stroke-linecap="round"><g transform="translate(108.84207983160127 267.4553137823477) rotate(0 96.66139176523069 -103.03398588615966)"><path d="M-0.84 0.64 C8.12 -14.38, 20.48 -54.79, 52.98 -89.35 C85.48 -123.9, 170.63 -187.41, 194.16 -206.7 M0.92 -0.07 C9.77 -14.98, 19.85 -53.64, 51.88 -87.95 C83.91 -122.25, 169.41 -186.01, 193.11 -205.91" stroke="#000000" stroke-width="1" fill="none"></path></g></g><g transform="translate(10 10) rotate(0 36.321900548057684 16.215134173240045)"><text x="0" y="21.430268346480084" font-family="Virgil, Segoe UI Emoji" font-size="25.94421467718407px" fill="#000000" text-anchor="start" style="white-space: pre;" direction="ltr">k = 6</text></g><g transform="translate(117.90930597682336 61.6300384176306) rotate(0 2.582937192530096 10.762238302208758)"><text x="0" y="14.524476604417508" font-family="Virgil, Segoe UI Emoji" font-size="17.219581283534033px" fill="#000000" text-anchor="start" style="white-space: pre;" direction="ltr">1</text></g><g transform="translate(190.00195645388555 95.6100454321321) rotate(0 6.457342981325269 10.762238302208758)"><text x="0" y="14.524476604417508" font-family="Virgil, Segoe UI Emoji" font-size="17.219581283534023px" fill="#000000" text-anchor="start" style="white-space: pre;" direction="ltr">2</text></g><g transform="translate(229.4921453991318 141.98811944078352) rotate(0 6.02685344923691 10.762238302208758)"><text x="0" y="14.524476604417508" font-family="Virgil, Segoe UI Emoji" font-size="17.219581283534033px" fill="#000000" text-anchor="start" style="white-space: pre;" direction="ltr">3</text></g><g transform="translate(182.195707735356 203.97861206150674) rotate(0 6.02685344923691 10.762238302208743)"><text x="0" y="14.524476604417508" font-family="Virgil, Segoe UI Emoji" font-size="17.219581283534033px" fill="#000000" text-anchor="start" style="white-space: pre;" direction="ltr">4</text></g><g transform="translate(122.04196869987857 161.2740189483464) rotate(0 5.596363917148551 10.762238302208758)"><text x="0" y="14.524476604417508" font-family="Virgil, Segoe UI Emoji" font-size="17.219581283534005px" fill="#000000" text-anchor="start" style="white-space: pre;" direction="ltr">5</text></g><g transform="translate(79.33740186171411 114.43678938712964) rotate(0 6.02685344923691 10.762238302208758)"><text x="0" y="14.524476604417508" font-family="Virgil, Segoe UI Emoji" font-size="17.219581283534033px" fill="#000000" text-anchor="start" style="white-space: pre;" direction="ltr">6</text></g><g stroke-linecap="round"><g stroke-opacity="0.9" fill-opacity="0.9" transform="translate(79.84782342470768 83.38915620016664) rotate(0 55.29607766771073 -16.81045133819852)" fill-rule="evenodd"><path d="M0 0 C0 0, 0 0, 0 0 M0 0 C0 0, 0 0, 0 0 M2.65 1.17 C8.84 -3.11, 15.14 -9.52, 25.04 -21.66 M3.92 0.8 C11.56 -8.35, 20.11 -17.05, 25.72 -22.92 M9.8 1.77 C18.56 -9.23, 30.54 -20.7, 35.12 -29.19 M8.21 2.07 C15.68 -5.79, 22.34 -13.05, 36.96 -31.14 M14.16 3.9 C24.18 -8.78, 37.77 -21.48, 42.5 -32.77 M11.97 3.7 C21.74 -7.55, 32.41 -17.87, 44.07 -31.45 M14.53 5.63 C31.04 -10.56, 42.35 -22.85, 51.1 -35.58 M15.91 6.55 C28.78 -8.49, 43.19 -25.52, 51.75 -35.02 M19.64 6.72 C35.89 -11.13, 47.15 -27.43, 56.18 -36.51 M21.29 7.77 C34.58 -8.66, 47.23 -22.39, 58.22 -36.06 M23.99 8.46 C33.66 -0.63, 44.63 -13.18, 63.49 -38.86 M24.59 9.44 C33.79 -3.6, 44.65 -14.25, 64.05 -36.77 M27.08 12.98 C39.66 -1.88, 51.98 -16.93, 69.07 -39.54 M26.39 11.65 C35.16 1.32, 44.81 -9.09, 70.71 -39.76 M31.18 12.25 C50.47 -8.49, 70.88 -30.04, 80.47 -43.03 M31.89 12.32 C45.54 -3.08, 57.99 -19.83, 79.46 -42.21 M35.31 14.01 C49.29 -0.22, 59.8 -16.88, 87.38 -43.99 M36.57 12.83 C50.9 -3.15, 65.83 -21.16, 84.75 -43.7 M42.28 12.73 C61.15 -7.37, 77.69 -28.49, 91.93 -44.8 M42.02 13.84 C51.71 1.86, 60.84 -10.81, 92.19 -44 M48.71 11.48 C57.22 0.89, 67.69 -12.74, 98.68 -44.92 M47.6 12.91 C61.22 -3.84, 78.05 -21.9, 97.29 -45.63 M54.08 11.2 C69.03 -5.62, 85.99 -24.88, 101.83 -45.11 M52.25 12.55 C66.29 -3.37, 80.37 -20.83, 102.41 -44.27 M57.98 12.82 C68.24 1.04, 79.25 -12.95, 108.32 -44.38 M57.47 12.12 C76.99 -9.86, 95.21 -30.2, 106.52 -44.97 M73.77 0.68 C84.95 -11.87, 96.44 -22.02, 111.09 -41.38 M73.66 2.04 C82.78 -8.86, 92.08 -21.2, 110.24 -41.73" stroke="#fa5252" stroke-width="0.5" fill="none"></path><path d="M-0.04 0.75 C5.57 -4.62, 15.87 -24.02, 34.56 -31.17 C53.25 -38.32, 108.61 -48.98, 112.11 -42.13 C115.62 -35.27, 74.19 2.81, 55.6 9.96 C37.02 17.12, 9.9 2.6, 0.62 0.8 M-1.52 0.1 C4.39 -5.07, 18.02 -25.48, 36.84 -32.81 C55.67 -40.14, 108.22 -51.1, 111.41 -43.89 C114.6 -36.68, 74.64 2.87, 55.99 10.45 C37.33 18.04, 8.59 3.13, -0.52 1.62" stroke="#c92a2a" stroke-width="1" fill="none"></path></g></g><g stroke-linecap="round"><g stroke-opacity="0.9" fill-opacity="0.9" transform="translate(133.09096462477532 235.58310086467287) rotate(0 44.99245020275802 -34.474098401385206)" fill-rule="evenodd"><path d="M46.44 -70.93 C46.44 -70.93, 46.44 -70.93, 46.44 -70.93 M46.44 -70.93 C46.44 -70.93, 46.44 -70.93, 46.44 -70.93 M33.58 -49.01 C39.02 -55.95, 45.73 -62.07, 54.62 -73.06 M34.12 -50.4 C37.65 -55.56, 41.87 -60.75, 54.12 -73.54 M21.11 -31.62 C32.97 -44.3, 42.46 -54.87, 57.62 -72.62 M21.52 -31.04 C30.1 -40.28, 36.45 -47.86, 58.57 -72.55 M-1.46 1.18 C18.12 -18.69, 35.64 -39.76, 61.76 -72.33 M0.7 -0.61 C22.04 -24.54, 44.37 -48.66, 62.4 -70.9 M7.24 0.64 C27.82 -25.32, 46.56 -46.59, 66.2 -66.44 M4.44 -0.21 C24.71 -21.25, 43.85 -44.45, 65.94 -68.32 M9.33 2.54 C28.4 -17.62, 44.29 -36.26, 65.45 -63.91 M9.39 1.95 C29.72 -21.23, 50.23 -45.91, 68.02 -64.51 M15.31 2.48 C28.51 -12.01, 40.84 -28.49, 70.52 -60.79 M14.5 1.52 C33.89 -22.59, 55.16 -45.62, 68.89 -60.66 M20.39 5.26 C32.81 -12.76, 46.89 -29.21, 73.4 -59.45 M19.06 4.15 C35.17 -15.19, 52.65 -35.29, 71.49 -57.09 M23.55 2.08 C46.59 -20.96, 63.15 -43.55, 76.2 -56.96 M24.64 4.34 C37.16 -12.17, 51.19 -27.28, 74.37 -54.82 M30.75 4.95 C46.8 -16.21, 60.96 -32.68, 78.32 -50.85 M29.99 4.67 C42.78 -12.41, 57.4 -29.44, 77.63 -51.68 M34.72 3.66 C43.18 -5.89, 53.46 -19.03, 80.87 -47.24 M33.68 4.4 C45.68 -7.35, 56.73 -20.59, 81.14 -49.65 M36.75 4.69 C53.54 -10.4, 66.52 -27.99, 82.56 -46.81 M37.6 5.13 C55.44 -13.83, 73.55 -34.22, 83.21 -45.18 M45.19 6.15 C55.63 -8.39, 67.35 -21.92, 82.11 -39.2 M44.33 5.48 C56.74 -10.64, 68.77 -24.09, 84.75 -40.83 M47.29 7 C63.47 -10.03, 74.2 -26.01, 88.07 -39.29 M48.7 4.99 C60.61 -8.88, 74.16 -23.12, 85.94 -37.84 M53.63 7.21 C64.28 -8.2, 77.17 -21.54, 89.38 -32.47 M53 6.02 C62.43 -3.48, 70.83 -15.66, 88.48 -32.7 M59.92 2.67 C68.9 -5.77, 74.65 -14.31, 89.08 -28.04 M60.59 5.38 C71.61 -8.73, 83.68 -22.68, 90.15 -28.79 M66.92 3.69 C70.08 -2.68, 76.72 -6.56, 88.84 -26.19 M66.57 2.56 C72.5 -3.07, 77.12 -8.14, 91.1 -24.68 M75.45 3.4 C75.88 -3.14, 80.58 -9.09, 94.09 -18.6 M72.63 0.8 C80.62 -6.49, 86.84 -13.61, 91.76 -21.01 M80.99 1.2 C81.57 -3.42, 86.14 -4.96, 93.2 -14.02 M80.34 0.32 C83.93 -4.89, 88.2 -9.29, 93.79 -15.3" stroke="#40c057" stroke-width="0.5" fill="none"></path><path d="M-1.17 0.56 C7.6 -11.86, 37.43 -70.5, 52.82 -73.49 C68.21 -76.47, 91.47 -30.52, 91.16 -17.35 C90.84 -4.17, 66.18 2.49, 50.9 5.57 C35.63 8.65, 7.88 2.13, -0.51 1.13 M0.42 -0.19 C9.04 -12.45, 37.14 -72.61, 52.09 -75.33 C67.04 -78.06, 90.28 -29.66, 90.11 -16.54 C89.94 -3.43, 65.84 0.86, 51.05 3.36 C36.27 5.86, 10.15 -0.7, 1.41 -1.54" stroke="#5c940d" stroke-width="1" fill="none"></path></g></g><g stroke-linecap="round"><g stroke-opacity="0.9" fill-opacity="0.9" transform="translate(211.543270013116 44.71735632257386) rotate(0 -9.547406883297128 43.50974572835305)" fill-rule="evenodd"><path d="M-59.09 41.39 C-59.09 41.39, -59.09 41.39, -59.09 41.39 M-59.09 41.39 C-59.09 41.39, -59.09 41.39, -59.09 41.39 M-62.63 50.38 C-53.11 42.79, -47.7 34.23, -41.9 27.25 M-61.18 48.6 C-53.24 40.77, -47.16 33.76, -43.15 28.67 M-58.61 53.59 C-53.55 46.07, -44.61 39.09, -33.12 22.08 M-60.02 54.3 C-49.91 44.59, -41.34 33.19, -30.5 21.45 M-59.4 56.7 C-47.54 48.52, -39.53 35.56, -20.21 13.47 M-58.67 57.87 C-50.64 50.31, -41.64 39.8, -18.43 14.14 M-55.46 60.56 C-36.68 42.17, -21.3 20.09, -8.71 6.98 M-55.77 62.67 C-41.23 43.85, -26.2 28.6, -7.85 6.64 M-53.45 66.91 C-41.79 51.76, -32.77 37.44, 0.32 3.64 M-53.87 64.4 C-30.3 41.25, -9.13 14.84, 1.62 0.82 M-51.02 68.41 C-40.32 53.24, -28.5 41.26, 4.27 5.5 M-50.44 68.96 C-31.89 47.7, -13.01 25.38, 4.31 4.85 M-46.95 69.77 C-31.5 53.39, -16.33 36.53, 8.58 6.88 M-47.31 70.28 C-31.67 52.79, -17.14 35.48, 7.84 6.22 M-44.62 74.52 C-29.37 57.36, -16.37 41.55, 10.17 8.52 M-46.38 74.92 C-30 56.4, -13 38.07, 11.32 8.66 M-41.54 76.82 C-25.66 59.81, -12.3 40.82, 15.25 13.89 M-42.51 76.65 C-22.79 56.21, -5.76 34.96, 14.79 12.26 M-37.4 77.57 C-18.46 56.58, -3.05 34.84, 16.48 14.95 M-37.78 78.36 C-20.85 58.19, -3.64 37.74, 17.15 13.99 M-33.65 81.9 C-15.93 56.98, 6.69 34.83, 20.15 16 M-34.4 80.3 C-18.01 62.3, -3.7 44.95, 19.06 17.33 M-32.23 81.79 C-13.3 65.44, 0.7 44.83, 23.38 19.5 M-31.67 82.51 C-19.37 67.93, -5.72 53.22, 22.85 20.89 M-29.14 83.85 C-11.21 66.29, 1.2 48.11, 25.31 21.84 M-28.89 85.35 C-13.03 67.73, 2.76 50.15, 25.4 21.94 M-23.81 86.41 C-10.21 70.05, 3.08 55.92, 27.6 27.94 M-24.97 86.42 C-5.23 66.11, 12.17 45.83, 29.43 25.8 M-18.68 89.56 C-0.65 69.33, 17.42 47.58, 32.31 28.06 M-21.3 87.3 C-6.61 72.06, 7.33 56.38, 31.02 28.43 M-13.95 89.21 C2.51 71.14, 16.73 50.16, 35.06 32.07 M-14.8 89.5 C1.69 70.03, 16.82 51.02, 33.55 31.51 M-9.08 89.42 C8.11 67.79, 29.21 46.07, 38.28 35.08 M-8.66 87.47 C7.64 68.69, 22.48 50.48, 36.6 33.78 M-4.86 88.25 C11.32 70.84, 25.34 52.69, 38.27 36.95 M-4.75 90.29 C4.98 77.32, 15.96 66.34, 39.85 37.41 M1.5 85.41 C15.84 71.85, 24.41 58.74, 43.24 40.14 M2.07 86.1 C17.13 71.14, 29.37 54.09, 40.66 41.57 M14.62 78.3 C24.75 66.99, 33.27 57.44, 45.62 43.2 M13.88 79.88 C20.27 71.76, 29.35 62.51, 43.28 44.78" stroke="#fab005" stroke-width="0.5" fill="none"></path><path d="M-0.94 -0.48 C-11.27 7.54, -59.13 33.06, -61.57 47.75 C-64 62.45, -32.93 87.74, -15.55 87.69 C1.84 87.64, 39.97 62.2, 42.74 47.43 C45.52 32.66, 8.11 7.14, 1.11 -0.9 M0.77 -1.78 C-9.7 5.89, -59.32 30.68, -62.18 45.77 C-65.04 60.87, -33.94 88.43, -16.39 88.8 C1.15 89.17, 40.31 62.95, 43.08 47.99 C45.85 33.02, 7.59 6.79, 0.22 -0.99" stroke="#e67700" stroke-width="1" fill="none"></path></g></g><g stroke-linecap="round"><g stroke-opacity="0.9" fill-opacity="0.9" transform="translate(73.3865235423068 94.80910984479661) rotate(0 16.050986989518094 36.44419270637525)" fill-rule="evenodd"><path d="M0 0 C0 0, 0 0, 0 0 M0 0 C0 0, 0 0, 0 0 M-2.36 7.49 C1.91 5.5, 4.25 2.68, 5.54 0.72 M-1.71 8.17 C0.23 4.85, 3.03 2.5, 5.34 -0.03 M-5.1 13.96 C1.68 12.47, 4.7 8.76, 9.05 -0.89 M-2.8 15.93 C1.7 11.65, 6.36 6.07, 9.7 0.73 M-3.25 24.47 C-0.17 20.17, 2.8 15.47, 16.75 2.22 M-3.88 23.16 C3.38 14.7, 10.57 6.6, 14.04 1.61 M-3.7 31.63 C2.42 21.24, 9.88 14.63, 18.9 2.08 M-6.08 31.14 C0.86 25.33, 6.01 17.48, 21.47 1.08 M-5.66 39.3 C1.17 26.99, 14.3 15.32, 24.78 0.03 M-6.32 38.77 C4.83 24.26, 19.15 10.61, 25.05 0.74 M-6.96 46.97 C0.91 35.1, 9.26 26.24, 30.44 2.36 M-8.12 46.42 C7.51 29.02, 21.25 12.62, 31.04 1.99 M-10.82 51.35 C2.55 41.86, 12.77 29.36, 36.54 1.85 M-8.74 53.28 C5.89 36.48, 20.17 21.22, 35.46 2.4 M-8.64 60.67 C11.14 37.16, 29.06 15.91, 37.55 3.41 M-9.23 60.46 C6.92 39.8, 22.86 21.92, 39.01 5.04 M-8.9 65.98 C3.72 51.88, 13.52 35.36, 42.91 5.79 M-9.54 66.08 C8.92 46.05, 25.6 25, 42.96 7.08 M-8.56 71.71 C3.52 54.29, 16.21 40.9, 45.63 8.48 M-9.33 70.59 C9.6 50.92, 28.74 28.06, 45.44 10.41 M-5.92 75.52 C7.31 58.76, 17.69 44.22, 37.51 24.3 M-7.02 74.4 C6.19 58.12, 20.82 43.86, 37.41 24.99" stroke="#15aabf" stroke-width="0.5" fill="none"></path><path d="M-0.5 -0.25 C-2.02 12.21, -17.2 72.68, -9.79 74.32 C-2.39 75.95, 42.36 21.87, 43.92 9.55 C45.48 -2.77, 6.85 1.96, -0.42 0.41 M1.44 -1.43 C0.34 10.75, -14.48 70.64, -7.58 72.7 C-0.68 74.75, 41.63 22.72, 42.83 10.89 C44.02 -0.93, 6.91 3.41, -0.4 1.73" stroke="#1864ab" stroke-width="1" fill="none"></path></g></g><g stroke-linecap="round"><g stroke-opacity="0.9" fill-opacity="0.9" transform="translate(135.48663285420508 112.22854865436446) rotate(0 -5.986040669249405 60.62853839857449)" fill-rule="evenodd"><path d="M-42.21 48.11 C-42.21 48.11, -42.21 48.11, -42.21 48.11 M-42.21 48.11 C-42.21 48.11, -42.21 48.11, -42.21 48.11 M-54.99 71.44 C-30.91 44.21, -6.88 15.97, 3.27 2.45 M-55.52 69.7 C-43.4 56.57, -31.38 41.91, 3.65 2.23 M-56.56 78.14 C-34.72 51.71, -14.57 25.67, 6.51 4.18 M-58.51 78.15 C-34.35 50.11, -9.5 23.12, 5.22 4.94 M-57.33 85 C-40.12 59.64, -17.42 37.84, 9.78 9.05 M-57.17 85.66 C-36.82 60.23, -14.02 35.45, 8.31 7.79 M-56.93 87.37 C-31.04 58.46, -2.11 26.03, 12.74 10.58 M-56.04 89.67 C-32.72 62.78, -10.27 38.25, 11.9 10.89 M-52.78 91.18 C-35.39 67.94, -12.23 43.87, 15.97 13.24 M-54.69 91.32 C-34.73 71.47, -14.7 48.46, 15.09 11.42 M-53.55 93.61 C-24.14 65.04, 3.48 30.03, 19.53 13.32 M-51.5 95.85 C-25.59 64.72, 2.39 33.52, 18.34 15.22 M-49.93 100.84 C-30.42 76.4, -8.68 48.83, 22.09 18.13 M-49.75 99.13 C-28.65 75.9, -8.79 50.29, 22.38 17.89 M-49.53 101.61 C-20.57 71.52, 5.15 39.36, 23.48 18.91 M-46.75 103.04 C-33.31 86.4, -18.41 69.64, 25.41 20.37 M-42.92 104.82 C-20.75 79.35, 0.43 51.31, 28.56 21.83 M-45.19 105.83 C-17.28 75.34, 9.95 44.25, 26.72 21.81 M-39.83 106.59 C-18.09 84.6, -0.25 57.8, 32.39 25.84 M-41.61 108.92 C-11.63 77.04, 15.97 43.59, 30.57 26.14 M-38.63 110.52 C-24.1 91.99, -7.77 72.61, 36.05 25.73 M-39.17 110.03 C-12.81 79.59, 13.99 51.41, 33.76 26.92 M-35.81 112.33 C-6.32 79.47, 22.18 48.6, 37.26 28.91 M-35.37 113.53 C-10.91 85.04, 13.21 56.52, 36.92 28.95 M-32.75 117.61 C-17.34 96.82, 1.59 80.22, 15.87 60.21 M-32.2 116.98 C-20.11 101.71, -5.43 86.02, 15.75 62.76 M15.6 60.69 C20.98 54.35, 28.21 45.96, 41.35 32.83 M15.03 61.82 C22.56 52.51, 32.85 42.24, 41.22 32.45 M-29.44 119.9 C-17.83 105.12, -10.87 96.8, 9.42 77.05 M-27.87 117.37 C-15.11 101.07, 0.68 84.85, 7.94 76.09 M23.88 55.99 C30.37 49.66, 39.53 42.89, 42.46 34.31 M25.98 55.06 C31.47 49.28, 37.33 43.54, 43.24 36.63 M-24.91 118.26 C-19.87 110.21, -10.93 104.72, 3.92 85.22 M-25.4 119.29 C-15.73 108.01, -4.43 96.44, 5.33 85.7 M32.47 52.17 C37.99 49.39, 42.46 43.95, 45.25 40.81 M33.64 52.84 C37.49 48.66, 40.35 43.89, 44.99 39.7 M-19.87 119.68 C-11.98 109.72, -1.64 99.45, 1.61 95.01 M-21.07 120.27 C-15.77 113.89, -8.98 108.26, 0.84 95.51 M-18.1 124.72 C-13.37 119.48, -9.35 114.75, -0.45 104.54 M-17.32 122.46 C-11.44 116.32, -5.67 110.13, -1.98 106.41" stroke="#7950f2" stroke-width="0.5" fill="none"></path><path d="M-0.61 1 C7 8.02, 42.55 31.72, 45.07 41.59 C47.58 51.46, 24.45 46.9, 14.49 60.24 C4.53 73.59, -2.54 118.41, -14.7 121.66 C-26.86 124.91, -60.81 100.08, -58.47 79.75 C-56.12 59.41, -10.21 12.9, -0.65 -0.36 M1.27 0.48 C9.32 7.19, 45.2 29.63, 47.37 39.81 C49.54 49.99, 24.67 47.71, 14.29 61.55 C3.9 75.39, -2.68 120.26, -14.95 122.85 C-27.22 125.44, -61.9 97.82, -59.34 77.08 C-56.78 56.34, -9.29 11.44, 0.43 -1.59" stroke="#5f3dc4" stroke-width="1" fill="none"></path></g></g><g stroke-linecap="round"><g stroke-opacity="0.9" fill-opacity="0.9" transform="translate(205.45072988503762 151.71011666395228) rotate(0 28.853338428812464 3.4711079158655878)" fill-rule="evenodd"><path d="M0 0 C0 0, 0 0, 0 0 M0 0 C0 0, 0 0, 0 0 M1.52 5.3 C13.02 -6.42, 19.62 -19.12, 33.95 -36.19 M2.42 4.2 C12.21 -7.93, 24.93 -21.93, 35.03 -35.17 M4.95 6.51 C17.15 -6.57, 30.55 -21.27, 41.98 -34.96 M5.46 7.55 C17.23 -5.91, 28.85 -21.06, 42.02 -35.01 M4.63 10.03 C19.27 -2.4, 32.2 -16.44, 53.18 -43.6 M5.83 11.64 C24.85 -9.88, 43.76 -30.29, 52.46 -43.43 M10.17 15.44 C20.5 2.92, 27.16 -7.79, 57.85 -40.05 M9.09 14.96 C25.74 -3.54, 41.37 -22.76, 56.49 -39.85 M9.83 17.53 C27.41 1.15, 39.44 -13.81, 58.17 -34.74 M11.21 17.83 C24.44 4.5, 36.32 -10.47, 57.98 -35.05 M14.91 22.49 C25.59 7.87, 38.38 -4.95, 58.45 -32.01 M13.8 20.34 C28.71 3.15, 44.67 -13.38, 58.54 -29.89 M14.26 26.6 C29.36 8.25, 44.76 -9.92, 56.21 -24.41 M14.36 25.75 C27.09 11.4, 39.02 -1.72, 57.4 -23.87 M18.7 28.35 C27.99 18.8, 35.96 7.44, 55.29 -17.53 M17.54 28.38 C29.21 15.96, 40.75 3.52, 56.26 -17.28 M20.93 30.24 C29.24 19.16, 38.81 10.32, 58.32 -9.36 M20.78 32.03 C29.96 21.95, 39.89 10.83, 56.59 -10.77 M23.94 34.88 C31.95 24.82, 42.58 12.14, 55.93 -2.03 M21.52 35.88 C32.4 24.37, 42.59 12.22, 56.58 -4.45 M23.52 39.7 C31.1 32.83, 38.89 24.22, 53.84 3.85 M23.48 39.93 C36.33 26.78, 46.49 12.32, 55.05 3.51 M24.71 41.16 C32.61 35.59, 38.52 27.03, 52 10.59 M25.9 42.82 C32.63 36.94, 38.34 29.94, 52.32 11.07 M29.63 44.42 C35.18 36.06, 43.41 28.96, 50.41 19.17 M29.18 46.34 C35.13 36.98, 43.21 29.62, 50.9 19.65 M30.64 50.76 C39.12 43.9, 42.23 35.61, 48.98 30.38 M32.75 48.52 C37.26 42.88, 42.06 35.83, 49.03 30.13 M35.26 50.3 C37.58 48.01, 42.69 43.17, 43.51 41.5 M34.29 50.83 C36.4 49.66, 39.66 46.71, 43.48 41.28" stroke="#be4bdb" stroke-width="0.5" fill="none"></path><path d="M0.96 -0.78 C8.91 -8.24, 39.49 -44.33, 48.36 -44.91 C57.24 -45.49, 56.02 -20.24, 54.22 -4.24 C52.41 11.76, 46.62 50.2, 37.54 51.09 C28.45 51.98, 6 9.47, -0.29 1.12 M0.01 1.43 C8.25 -5.85, 41.08 -42.29, 50.5 -43.57 C59.92 -44.84, 58.56 -22.13, 56.52 -6.23 C54.48 9.67, 47.37 51.07, 38.24 51.85 C29.11 52.63, 7.93 7, 1.75 -1.57" stroke="#862e9c" stroke-width="1" fill="none"></path></g></g></svg>